<svg width="63" height="49" viewBox="0 0 63 49" fill="none" xmlns="http://www.w3.org/2000/svg">
<path d="M56.9105 35.4434C56.9105 41.1183 48.258 48.8571 29.3791 48.8571C10.5002 48.8571 0 42.3128 0 36.638C0 30.9632 10.5002 25.252 29.3791 25.252C48.258 25.252 56.9105 29.7686 56.9105 35.4434Z" fill="#E8E8E8"/>
<path d="M45.3783 35.6624C45.3783 36.2015 44.9879 36.8611 44.1884 37.5591C43.3957 38.2511 42.2275 38.9569 40.7369 39.5904C37.7569 40.8568 33.5088 41.8254 28.4552 41.8254C23.4016 41.8254 19.2187 40.8569 16.3039 39.5909C14.8459 38.9576 13.7103 38.2522 12.9419 37.5606C12.1676 36.8636 11.7907 36.2036 11.7907 35.6624C11.7907 35.1311 12.1564 34.5928 12.9251 34.0776C13.6897 33.5651 14.823 33.0972 16.2833 32.7018C19.2019 31.9117 23.3913 31.4208 28.4552 31.4208C33.519 31.4208 37.7735 31.9117 40.7572 32.702C42.2502 33.0975 43.4161 33.5656 44.2053 34.0787C44.9997 34.5952 45.3783 35.1336 45.3783 35.6624Z" stroke="#453A36" stroke-opacity="0.5" stroke-width="0.3"/>
<path fill-rule="evenodd" clip-rule="evenodd" d="M52.3096 8.51828C52.3096 8.51513 52.3096 8.51198 52.3096 8.50883C52.3096 4.87066 41.6088 0 28.1798 0C14.7507 0 4.23556 4.87066 4.23556 8.50883C4.23555 8.50883 4.23554 8.50883 4.23553 8.50883C4.23553 24.5774 14.9363 40.3483 28.3654 40.3483C41.7918 40.3483 52.3054 24.5836 52.3096 8.51828Z" fill="#F1F1F1"/>
<ellipse cx="28.4552" cy="9.05779" rx="18.6252" ry="5.21509" fill="#886659"/>
<path d="M51.9955 9.88123C63.6363 8.50888 58.2039 20.5859 45.7871 24.9775" stroke="#F1F1F1" stroke-width="9" stroke-linecap="round"/>
<path d="M21.1686 25.1197C22.1478 26.0641 24.0495 26.2741 25.7163 25.6995" stroke="black" stroke-linecap="round"/>
<path d="M19.1857 21.8538C20.2034 22.2445 21.4068 21.6069 22.1005 20.3961" stroke="black" stroke-linecap="round"/>
<path d="M34.7259 20.456C35.1336 21.5197 36.3855 22.0415 37.6976 21.7778" stroke="black" stroke-linecap="round"/>
<path d="M31.9814 25.5134C33.0698 26.2391 34.8893 26.0554 36.3468 25.1503" stroke="black" stroke-linecap="round"/>
<path d="M30.2034 30.2331C29.5639 29.2152 27.9651 28.876 26.9186 30.1899" stroke="black" stroke-linecap="round"/>
</svg>
