<svg width="375" height="133" viewBox="0 0 375 133" fill="none" xmlns="http://www.w3.org/2000/svg">
<rect x="-20" y="17" width="423" height="196" fill="#9D8473"/>
<path d="M-51.1988 27.6206L-56.9781 17.5H15.5346L21.3139 27.6206H-51.1988Z" stroke="#8D7460"/>
<path d="M21.1953 27.6206L15.416 17.5H89.8338L95.6131 27.6206H21.1953Z" stroke="#8D7460"/>
<path d="M95.4946 27.6206L89.7153 17.5H165.403L171.182 27.6206H95.4946Z" stroke="#8D7460"/>
<path d="M171.064 27.6206L165.285 17.5H239.702L245.482 27.6206H171.064Z" stroke="#8D7460"/>
<path d="M244.728 27.6206L238.949 17.5H314.637L320.416 27.6206H244.728Z" stroke="#8D7460"/>
<path d="M320.298 27.6206L314.518 17.5H388.936L394.715 27.6206H320.298Z" stroke="#8D7460"/>
<path d="M-2.93604 37.3511L-8.71536 27.2305H63.7973L69.5766 37.3511H-2.93604Z" stroke="#8D7460"/>
<path d="M69.4581 37.3511L63.6788 27.2305H138.097L143.876 37.3511H69.4581Z" stroke="#8D7460"/>
<path d="M143.757 37.3511L137.978 27.2305H213.666L219.445 37.3511H143.757Z" stroke="#8D7460"/>
<path d="M219.327 37.3511L213.547 27.2305H287.965L293.745 37.3511H219.327Z" stroke="#8D7460"/>
<path d="M292.991 37.3511L287.212 27.2305H362.899L368.679 37.3511H292.991Z" stroke="#8D7460"/>
<path d="M368.56 37.3511L362.781 27.2305H437.199L442.978 37.3511H368.56Z" stroke="#8D7460"/>
<path d="M-33.4178 47.0816L-39.1971 36.961H33.3156L39.0949 47.0816H-33.4178Z" stroke="#8D7460"/>
<path d="M38.9764 47.0816L33.1971 36.961H107.615L113.394 47.0816H38.9764Z" stroke="#8D7460"/>
<path d="M113.276 47.0816L107.496 36.961H183.184L188.963 47.0816H113.276Z" stroke="#8D7460"/>
<path d="M188.845 47.0816L183.066 36.961H257.483L263.263 47.0816H188.845Z" stroke="#8D7460"/>
<path d="M262.509 47.0816L256.73 36.961H332.418L338.197 47.0816H262.509Z" stroke="#8D7460"/>
<path d="M338.079 47.0816L332.299 36.961H406.717L412.496 47.0816H338.079Z" stroke="#8D7460"/>
<path d="M7.22455 56.8121L1.44523 46.6915H73.9579L79.7372 56.8121H7.22455Z" stroke="#8D7460"/>
<path d="M79.6188 56.8121L73.8395 46.6915H148.257L154.037 56.8121H79.6188Z" stroke="#8D7460"/>
<path d="M153.918 56.8121L148.139 46.6915H223.826L229.606 56.8121H153.918Z" stroke="#8D7460"/>
<path d="M229.487 56.8121L223.708 46.6915H298.126L303.905 56.8121H229.487Z" stroke="#8D7460"/>
<path d="M303.152 56.8121L297.372 46.6915H373.06L378.839 56.8121H303.152Z" stroke="#8D7460"/>
<path d="M378.721 56.8121L372.942 46.6915H447.359L453.139 56.8121H378.721Z" stroke="#8D7460"/>
<path d="M-25.7974 66.5426L-31.5767 56.422H40.936L46.7153 66.5426H-25.7974Z" stroke="#8D7460"/>
<path d="M46.5968 66.5426L40.8175 56.422H115.235L121.015 66.5426H46.5968Z" stroke="#8D7460"/>
<path d="M120.896 66.5426L115.117 56.422H190.805L196.584 66.5426H120.896Z" stroke="#8D7460"/>
<path d="M196.465 66.5426L190.686 56.422H265.104L270.883 66.5426H196.465Z" stroke="#8D7460"/>
<path d="M270.13 66.5426L264.35 56.422H340.038L345.817 66.5426H270.13Z" stroke="#8D7460"/>
<path d="M345.699 66.5426L339.92 56.422H414.337L420.117 66.5426H345.699Z" stroke="#8D7460"/>
<path d="M-56.2791 76.273L-62.0584 66.1525H10.4543L16.2336 76.273H-56.2791Z" stroke="#8D7460"/>
<path d="M16.1151 76.273L10.3358 66.1525H84.7536L90.5329 76.273H16.1151Z" stroke="#8D7460"/>
<path d="M90.4143 76.273L84.635 66.1525H160.323L166.102 76.273H90.4143Z" stroke="#8D7460"/>
<path d="M165.984 76.273L160.204 66.1525H234.622L240.401 76.273H165.984Z" stroke="#8D7460"/>
<path d="M239.648 76.273L233.869 66.1525H309.556L315.336 76.273H239.648Z" stroke="#8D7460"/>
<path d="M315.217 76.273L309.438 66.1525H383.856L389.635 76.273H315.217Z" stroke="#8D7460"/>
<path d="M-8.0163 86.0036L-13.7956 75.883H58.717L64.4964 86.0036H-8.0163Z" stroke="#8D7460"/>
<path d="M64.3778 86.0036L58.5985 75.883H133.016L138.796 86.0036H64.3778Z" stroke="#8D7460"/>
<path d="M138.677 86.0036L132.898 75.883H208.586L214.365 86.0036H138.677Z" stroke="#8D7460"/>
<path d="M214.246 86.0036L208.467 75.883H282.885L288.664 86.0036H214.246Z" stroke="#8D7460"/>
<path d="M287.911 86.0036L282.131 75.883H357.819L363.598 86.0036H287.911Z" stroke="#8D7460"/>
<path d="M363.48 86.0036L357.701 75.883H432.118L437.898 86.0036H363.48Z" stroke="#8D7460"/>
<path d="M-38.498 95.734L-44.2774 85.6135H28.2353L34.0146 95.734H-38.498Z" stroke="#8D7460"/>
<path d="M33.8961 95.734L28.1168 85.6135H102.535L108.314 95.734H33.8961Z" stroke="#8D7460"/>
<path d="M108.195 95.734L102.416 85.6135H178.104L183.883 95.734H108.195Z" stroke="#8D7460"/>
<path d="M183.765 95.734L177.985 85.6135H252.403L258.182 95.734H183.765Z" stroke="#8D7460"/>
<path d="M257.429 95.734L251.65 85.6135H327.337L333.117 95.734H257.429Z" stroke="#8D7460"/>
<path d="M332.998 95.734L327.219 85.6135H401.637L407.416 95.734H332.998Z" stroke="#8D7460"/>
<path d="M2.14428 105.465L-3.63503 95.344H68.8776L74.657 105.465H2.14428Z" stroke="#8D7460"/>
<path d="M74.5384 105.465L68.7591 95.344H143.177L148.956 105.465H74.5384Z" stroke="#8D7460"/>
<path d="M148.838 105.465L143.058 95.344H218.746L224.525 105.465H148.838Z" stroke="#8D7460"/>
<path d="M224.407 105.465L218.628 95.344H293.045L298.825 105.465H224.407Z" stroke="#8D7460"/>
<path d="M298.071 105.465L292.292 95.344H367.98L373.759 105.465H298.071Z" stroke="#8D7460"/>
<path d="M373.641 105.465L367.861 95.344H442.279L448.058 105.465H373.641Z" stroke="#8D7460"/>
<path d="M-30.8776 115.195L-36.6569 105.074H35.8557L41.635 115.195H-30.8776Z" stroke="#8D7460"/>
<path d="M41.5166 115.195L35.7373 105.074H110.155L115.934 115.195H41.5166Z" stroke="#8D7460"/>
<path d="M115.816 115.195L110.036 105.074H185.724L191.504 115.195H115.816Z" stroke="#8D7460"/>
<path d="M191.385 115.195L185.606 105.074H260.024L265.803 115.195H191.385Z" stroke="#8D7460"/>
<path d="M265.049 115.195L259.27 105.074H334.958L340.737 115.195H265.049Z" stroke="#8D7460"/>
<path d="M340.619 115.195L334.839 105.074H409.257L415.036 115.195H340.619Z" stroke="#8D7460"/>
<path d="M-60.0893 124.926L-65.8686 114.805H6.64405L12.4234 124.926H-60.0893Z" stroke="#8D7460"/>
<path d="M12.3049 124.926L6.52555 114.805H80.9433L86.7227 124.926H12.3049Z" stroke="#8D7460"/>
<path d="M86.6041 124.926L80.8248 114.805H156.513L162.292 124.926H86.6041Z" stroke="#8D7460"/>
<path d="M162.173 124.926L156.394 114.805H230.812L236.591 124.926H162.173Z" stroke="#8D7460"/>
<path d="M235.838 124.926L230.058 114.805H305.746L311.525 124.926H235.838Z" stroke="#8D7460"/>
<path d="M311.407 124.926L305.628 114.805H380.045L385.825 124.926H311.407Z" stroke="#8D7460"/>
<path d="M-11.8265 134.656L-17.6059 124.535H54.9068L60.6861 134.656H-11.8265Z" stroke="#8D7460"/>
<path d="M60.5676 134.656L54.7883 124.535H129.206L134.985 134.656H60.5676Z" stroke="#8D7460"/>
<path d="M134.867 134.656L129.088 124.535H204.775L210.555 134.656H134.867Z" stroke="#8D7460"/>
<path d="M210.436 134.656L204.657 124.535H279.075L284.854 134.656H210.436Z" stroke="#8D7460"/>
<path d="M284.1 134.656L278.321 124.535H354.009L359.788 134.656H284.1Z" stroke="#8D7460"/>
<path d="M359.67 134.656L353.89 124.535H428.308L434.088 134.656H359.67Z" stroke="#8D7460"/>
<rect x="-8" width="388" height="17" fill="#826E60"/>
</svg>
