<svg width="722" height="334" viewBox="0 0 722 334" fill="none" xmlns="http://www.w3.org/2000/svg">
<rect x="69.6091" y="138" width="613.431" height="196" fill="#9D8473"/>
<path d="M24.1792 148.621L15.7981 138.5H121.327L129.708 148.621H24.1792Z" stroke="#8D7460"/>
<path d="M129.164 148.621L120.783 138.5H229.075L237.456 148.621H129.164Z" stroke="#8D7460"/>
<path d="M236.913 148.621L228.532 138.5H338.665L347.046 148.621H236.913Z" stroke="#8D7460"/>
<path d="M346.503 148.621L338.122 138.5H446.413L454.794 148.621H346.503Z" stroke="#8D7460"/>
<path d="M453.33 148.621L444.949 138.5H555.082L563.463 148.621H453.33Z" stroke="#8D7460"/>
<path d="M562.92 148.621L554.539 138.5H662.831L671.212 148.621H562.92Z" stroke="#8D7460"/>
<path d="M94.1693 158.351L85.7882 148.23H191.317L199.698 158.351H94.1693Z" stroke="#8D7460"/>
<path d="M199.155 158.351L190.774 148.23H299.065L307.446 158.351H199.155Z" stroke="#8D7460"/>
<path d="M306.903 158.351L298.522 148.23H408.655L417.037 158.351H306.903Z" stroke="#8D7460"/>
<path d="M416.493 158.351L408.112 148.23H516.404L524.785 158.351H416.493Z" stroke="#8D7460"/>
<path d="M523.32 158.351L514.939 148.23H625.073L633.454 158.351H523.32Z" stroke="#8D7460"/>
<path d="M632.91 158.351L624.529 148.23H732.821L741.202 158.351H632.91Z" stroke="#8D7460"/>
<path d="M49.9651 168.082L41.584 157.961H147.113L155.494 168.082H49.9651Z" stroke="#8D7460"/>
<path d="M154.95 168.082L146.569 157.961H254.861L263.242 168.082H154.95Z" stroke="#8D7460"/>
<path d="M262.699 168.082L254.318 157.961H364.451L372.832 168.082H262.699Z" stroke="#8D7460"/>
<path d="M372.289 168.082L363.907 157.961H472.199L480.58 168.082H372.289Z" stroke="#8D7460"/>
<path d="M479.116 168.082L470.735 157.961H580.868L589.249 168.082H479.116Z" stroke="#8D7460"/>
<path d="M588.706 168.082L580.325 157.961H688.616L696.997 168.082H588.706Z" stroke="#8D7460"/>
<path d="M108.904 177.812L100.523 167.692H206.052L214.433 177.812H108.904Z" stroke="#8D7460"/>
<path d="M213.89 177.812L205.509 167.692H313.8L322.181 177.812H213.89Z" stroke="#8D7460"/>
<path d="M321.638 177.812L313.257 167.692H423.39L431.771 177.812H321.638Z" stroke="#8D7460"/>
<path d="M431.228 177.812L422.847 167.692H531.138L539.519 177.812H431.228Z" stroke="#8D7460"/>
<path d="M538.055 177.812L529.674 167.692H639.808L648.189 177.812H538.055Z" stroke="#8D7460"/>
<path d="M647.645 177.812L639.264 167.692H747.556L755.937 177.812H647.645Z" stroke="#8D7460"/>
<path d="M61.0162 187.543L52.635 177.422H158.164L166.545 187.543H61.0162Z" stroke="#8D7460"/>
<path d="M166.002 187.543L157.62 177.422H265.912L274.293 187.543H166.002Z" stroke="#8D7460"/>
<path d="M273.75 187.543L265.369 177.422H375.502L383.883 187.543H273.75Z" stroke="#8D7460"/>
<path d="M383.34 187.543L374.959 177.422H483.25L491.631 187.543H383.34Z" stroke="#8D7460"/>
<path d="M490.167 187.543L481.786 177.422H591.919L600.3 187.543H490.167Z" stroke="#8D7460"/>
<path d="M599.757 187.543L591.376 177.422H699.667L708.049 187.543H599.757Z" stroke="#8D7460"/>
<path d="M16.8118 197.273L8.43069 187.152H113.96L122.341 197.273H16.8118Z" stroke="#8D7460"/>
<path d="M121.797 197.273L113.416 187.152H221.708L230.089 197.273H121.797Z" stroke="#8D7460"/>
<path d="M229.545 197.273L221.164 187.152H331.298L339.679 197.273H229.545Z" stroke="#8D7460"/>
<path d="M339.135 197.273L330.754 187.152H439.046L447.427 197.273H339.135Z" stroke="#8D7460"/>
<path d="M445.963 197.273L437.581 187.152H547.715L556.096 197.273H445.963Z" stroke="#8D7460"/>
<path d="M555.553 197.273L547.172 187.152H655.463L663.844 197.273H555.553Z" stroke="#8D7460"/>
<path d="M86.8019 207.004L78.4208 196.883H183.95L192.331 207.004H86.8019Z" stroke="#8D7460"/>
<path d="M191.787 207.004L183.406 196.883H291.698L300.079 207.004H191.787Z" stroke="#8D7460"/>
<path d="M299.536 207.004L291.155 196.883H401.288L409.669 207.004H299.536Z" stroke="#8D7460"/>
<path d="M409.126 207.004L400.745 196.883H509.036L517.417 207.004H409.126Z" stroke="#8D7460"/>
<path d="M515.953 207.004L507.572 196.883H617.705L626.086 207.004H515.953Z" stroke="#8D7460"/>
<path d="M625.543 207.004L617.162 196.883H725.453L733.834 207.004H625.543Z" stroke="#8D7460"/>
<path d="M42.5977 216.734L34.2166 206.614H139.745L148.127 216.734H42.5977Z" stroke="#8D7460"/>
<path d="M147.583 216.734L139.202 206.614H247.494L255.875 216.734H147.583Z" stroke="#8D7460"/>
<path d="M255.331 216.734L246.95 206.614H357.084L365.465 216.734H255.331Z" stroke="#8D7460"/>
<path d="M364.921 216.734L356.54 206.614H464.832L473.213 216.734H364.921Z" stroke="#8D7460"/>
<path d="M471.748 216.734L463.367 206.614H573.501L581.882 216.734H471.748Z" stroke="#8D7460"/>
<path d="M581.338 216.734L572.957 206.614H681.249L689.63 216.734H581.338Z" stroke="#8D7460"/>
<path d="M101.537 226.465L93.1557 216.344H198.685L207.066 226.465H101.537Z" stroke="#8D7460"/>
<path d="M206.522 226.465L198.141 216.344H306.433L314.814 226.465H206.522Z" stroke="#8D7460"/>
<path d="M314.27 226.465L305.889 216.344H416.023L424.404 226.465H314.27Z" stroke="#8D7460"/>
<path d="M423.86 226.465L415.479 216.344H523.771L532.152 226.465H423.86Z" stroke="#8D7460"/>
<path d="M530.688 226.465L522.307 216.344H632.44L640.821 226.465H530.688Z" stroke="#8D7460"/>
<path d="M640.278 226.465L631.897 216.344H740.188L748.569 226.465H640.278Z" stroke="#8D7460"/>
<path d="M53.6488 236.195L45.2677 226.074H150.797L159.178 236.195H53.6488Z" stroke="#8D7460"/>
<path d="M158.634 236.195L150.253 226.074H258.545L266.926 236.195H158.634Z" stroke="#8D7460"/>
<path d="M266.382 236.195L258.001 226.074H368.135L376.516 236.195H266.382Z" stroke="#8D7460"/>
<path d="M375.972 236.195L367.591 226.074H475.883L484.264 236.195H375.972Z" stroke="#8D7460"/>
<path d="M482.799 236.195L474.418 226.074H584.552L592.933 236.195H482.799Z" stroke="#8D7460"/>
<path d="M592.389 236.195L584.008 226.074H692.3L700.681 236.195H592.389Z" stroke="#8D7460"/>
<path d="M9.44437 294.578L1.06325 284.457H106.592L114.973 294.578H9.44437Z" stroke="#8D7460"/>
<path d="M114.43 294.578L106.049 284.457H214.34L222.721 294.578H114.43Z" stroke="#8D7460"/>
<path d="M222.178 294.578L213.797 284.457H323.93L332.312 294.578H222.178Z" stroke="#8D7460"/>
<path d="M331.768 294.578L323.387 284.457H431.679L440.06 294.578H331.768Z" stroke="#8D7460"/>
<path d="M438.595 294.578L430.214 284.457H540.348L548.729 294.578H438.595Z" stroke="#8D7460"/>
<path d="M548.185 294.578L539.804 284.457H648.096L656.477 294.578H548.185Z" stroke="#8D7460"/>
<path d="M79.4347 304.309L71.0536 294.188H176.582L184.964 304.309H79.4347Z" stroke="#8D7460"/>
<path d="M184.42 304.309L176.039 294.188H284.331L292.712 304.309H184.42Z" stroke="#8D7460"/>
<path d="M292.168 304.309L283.787 294.188H393.921L402.302 304.309H292.168Z" stroke="#8D7460"/>
<path d="M401.758 304.309L393.377 294.188H501.669L510.05 304.309H401.758Z" stroke="#8D7460"/>
<path d="M508.585 304.309L500.204 294.188H610.338L618.719 304.309H508.585Z" stroke="#8D7460"/>
<path d="M618.176 304.309L609.794 294.188H718.086L726.467 304.309H618.176Z" stroke="#8D7460"/>
<path d="M35.2303 314.039L26.8491 303.918H132.378L140.759 314.039H35.2303Z" stroke="#8D7460"/>
<path d="M140.216 314.039L131.834 303.918H240.126L248.507 314.039H140.216Z" stroke="#8D7460"/>
<path d="M247.964 314.039L239.583 303.918H349.716L358.097 314.039H247.964Z" stroke="#8D7460"/>
<path d="M357.554 314.039L349.173 303.918H457.464L465.846 314.039H357.554Z" stroke="#8D7460"/>
<path d="M464.381 314.039L456 303.918H566.133L574.515 314.039H464.381Z" stroke="#8D7460"/>
<path d="M573.971 314.039L565.59 303.918H673.882L682.263 314.039H573.971Z" stroke="#8D7460"/>
<path d="M94.1693 323.769L85.7882 313.649H191.317L199.698 323.769H94.1693Z" stroke="#8D7460"/>
<path d="M199.155 323.769L190.774 313.649H299.065L307.446 323.769H199.155Z" stroke="#8D7460"/>
<path d="M306.903 323.769L298.522 313.649H408.655L417.037 323.769H306.903Z" stroke="#8D7460"/>
<path d="M416.493 323.769L408.112 313.649H516.404L524.785 323.769H416.493Z" stroke="#8D7460"/>
<path d="M523.32 323.769L514.939 313.649H625.073L633.454 323.769H523.32Z" stroke="#8D7460"/>
<path d="M632.91 323.769L624.529 313.649H732.821L741.202 323.769H632.91Z" stroke="#8D7460"/>
<path d="M46.2814 333.5L37.9003 323.379H143.429L151.81 333.5H46.2814Z" stroke="#8D7460"/>
<path d="M151.267 333.5L142.886 323.379H251.177L259.558 333.5H151.267Z" stroke="#8D7460"/>
<path d="M259.015 333.5L250.634 323.379H360.767L369.148 333.5H259.015Z" stroke="#8D7460"/>
<path d="M368.605 333.5L360.224 323.379H468.515L476.897 333.5H368.605Z" stroke="#8D7460"/>
<path d="M475.432 333.5L467.051 323.379H577.185L585.566 333.5H475.432Z" stroke="#8D7460"/>
<path d="M585.022 333.5L576.641 323.379H684.933L693.314 333.5H585.022Z" stroke="#8D7460"/>
<path d="M11.2862 245.925L2.90505 235.805H108.434L116.815 245.925H11.2862Z" stroke="#8D7460"/>
<path d="M116.272 245.925L107.89 235.805H216.182L224.563 245.925H116.272Z" stroke="#8D7460"/>
<path d="M224.02 245.925L215.639 235.805H325.772L334.153 245.925H224.02Z" stroke="#8D7460"/>
<path d="M333.61 245.925L325.229 235.805H433.52L441.901 245.925H333.61Z" stroke="#8D7460"/>
<path d="M440.437 245.925L432.056 235.805H542.189L550.57 245.925H440.437Z" stroke="#8D7460"/>
<path d="M550.027 245.925L541.646 235.805H649.937L658.319 245.925H550.027Z" stroke="#8D7460"/>
<path d="M81.2764 255.656L72.8953 245.535H178.424L186.805 255.656H81.2764Z" stroke="#8D7460"/>
<path d="M186.262 255.656L177.881 245.535H286.173L294.554 255.656H186.262Z" stroke="#8D7460"/>
<path d="M294.01 255.656L285.629 245.535H395.763L404.144 255.656H294.01Z" stroke="#8D7460"/>
<path d="M403.6 255.656L395.219 245.535H503.511L511.892 255.656H403.6Z" stroke="#8D7460"/>
<path d="M510.427 255.656L502.046 245.535H612.18L620.561 255.656H510.427Z" stroke="#8D7460"/>
<path d="M620.017 255.656L611.636 245.535H719.928L728.309 255.656H620.017Z" stroke="#8D7460"/>
<path d="M37.0722 265.387L28.6911 255.266H134.22L142.601 265.387H37.0722Z" stroke="#8D7460"/>
<path d="M142.058 265.387L133.676 255.266H241.968L250.349 265.387H142.058Z" stroke="#8D7460"/>
<path d="M249.806 265.387L241.425 255.266H351.558L359.939 265.387H249.806Z" stroke="#8D7460"/>
<path d="M359.396 265.387L351.015 255.266H459.306L467.687 265.387H359.396Z" stroke="#8D7460"/>
<path d="M466.223 265.387L457.842 255.266H567.975L576.356 265.387H466.223Z" stroke="#8D7460"/>
<path d="M575.813 265.387L567.432 255.266H675.724L684.105 265.387H575.813Z" stroke="#8D7460"/>
<path d="M96.0113 275.117L87.6301 264.996H193.159L201.54 275.117H96.0113Z" stroke="#8D7460"/>
<path d="M200.997 275.117L192.616 264.996H300.907L309.289 275.117H200.997Z" stroke="#8D7460"/>
<path d="M308.745 275.117L300.364 264.996H410.497L418.878 275.117H308.745Z" stroke="#8D7460"/>
<path d="M418.335 275.117L409.954 264.996H518.245L526.627 275.117H418.335Z" stroke="#8D7460"/>
<path d="M525.162 275.117L516.781 264.996H626.915L635.296 275.117H525.162Z" stroke="#8D7460"/>
<path d="M634.752 275.117L626.371 264.996H734.663L743.044 275.117H634.752Z" stroke="#8D7460"/>
<path d="M48.1232 284.847L39.7421 274.727H145.271L153.652 284.847H48.1232Z" stroke="#8D7460"/>
<path d="M153.109 284.847L144.727 274.727H253.019L261.4 284.847H153.109Z" stroke="#8D7460"/>
<path d="M260.857 284.847L252.476 274.727H362.609L370.99 284.847H260.857Z" stroke="#8D7460"/>
<path d="M370.447 284.847L362.066 274.727H470.357L478.738 284.847H370.447Z" stroke="#8D7460"/>
<path d="M477.274 284.847L468.893 274.727H579.026L587.407 284.847H477.274Z" stroke="#8D7460"/>
<path d="M586.864 284.847L578.483 274.727H686.775L695.156 284.847H586.864Z" stroke="#8D7460"/>
<rect x="88.0116" y="122" width="560.674" height="15" fill="#CDB3A2" stroke="#453B37" stroke-width="2"/>
<path d="M363.734 87.25L381.651 79.75H519.367L539.783 87.25H363.734Z" fill="#D9D9D9" stroke="#453B37" stroke-width="1.5"/>
<rect x="365.75" y="85.75" width="273.5" height="66.5" fill="#EDD3B5" stroke="#453B37" stroke-width="1.5"/>
<path d="M363.379 82.25L393.131 71.75H611.139L645.043 82.25H363.379Z" fill="#B6846B" stroke="#453B37" stroke-width="1.5"/>
<path d="M360.75 81.75H649.25V87.2526L360.75 88.2474V81.75Z" fill="#CD8F77" stroke="#453B37" stroke-width="1.5"/>
<path d="M339.679 124.25L359.835 101.75H497.194L520.163 124.25H339.679Z" fill="#D9D9D9" stroke="#453B37" stroke-width="1.5"/>
<rect x="343.75" y="122.75" width="250.5" height="66.5" fill="#EDD3B5" stroke="#453B37" stroke-width="1.5"/>
<path d="M339.198 119.25L368.337 96.75H567.351L600.556 119.25H339.198Z" fill="#B6846B" stroke="#453B37" stroke-width="1.5"/>
<path d="M338.75 118.75H601.25V124.253L338.75 125.247V118.75Z" fill="#CD8F77" stroke="#453B37" stroke-width="1.5"/>
<path d="M346.75 189.75H589.25V195C589.25 195.138 589.138 195.25 589 195.25H347C346.862 195.25 346.75 195.138 346.75 195V189.75Z" fill="#CD8F77" stroke="#453B37" stroke-width="1.5"/>
<rect x="-0.659145" y="0.83098" width="2.5" height="84.5" rx="1.25" transform="matrix(-0.993417 0.114557 0.114557 0.993417 407.729 141.081)" fill="#A98D7A" stroke="#453B37" stroke-width="1.5"/>
<rect x="-0.847531" y="0.637724" width="2.5" height="84.5" rx="1.25" transform="matrix(-0.99017 -0.139871 -0.139871 0.99017 388.392 141.447)" fill="#A98D7A" stroke="#453B37" stroke-width="1.5"/>
<rect x="-0.572257" y="0.893041" width="2.5" height="70.2898" rx="1.25" transform="matrix(-0.976865 0.213856 0.213856 0.976865 412.315 141.143)" fill="#A98D7A" stroke="#453B37" stroke-width="1.5"/>
<rect x="-0.811039" y="0.683532" width="2.5" height="70.2898" rx="1.25" transform="matrix(-0.996381 -0.0850042 -0.0850042 0.996381 395.429 140.274)" fill="#A98D7A" stroke="#453B37" stroke-width="1.5"/>
<path d="M377.74 143.5C377.74 143.822 378.028 144.353 379.133 144.991C380.183 145.598 381.753 146.17 383.758 146.661C387.756 147.638 393.318 148.25 399.49 148.25C405.661 148.25 411.223 147.638 415.221 146.661C417.226 146.17 418.796 145.598 419.846 144.991C420.952 144.353 421.24 143.822 421.24 143.5C421.24 143.178 420.952 142.647 419.846 142.009C418.796 141.402 417.226 140.83 415.221 140.339C411.223 139.362 405.661 138.75 399.49 138.75C393.318 138.75 387.756 139.362 383.758 140.339C381.753 140.83 380.183 141.402 379.133 142.009C378.028 142.647 377.74 143.178 377.74 143.5Z" fill="#F9B178" stroke="#453B37" stroke-width="1.5"/>
<rect width="45" height="5" transform="matrix(-1 0 0 1 421.99 138)" fill="#F9B178"/>
<path d="M377.74 137.5C377.74 137.822 378.028 138.353 379.133 138.991C380.183 139.598 381.753 140.17 383.758 140.661C387.756 141.638 393.318 142.25 399.49 142.25C405.661 142.25 411.223 141.638 415.221 140.661C417.226 140.17 418.796 139.598 419.846 138.991C420.952 138.353 421.24 137.822 421.24 137.5C421.24 137.178 420.952 136.647 419.846 136.009C418.796 135.402 417.226 134.83 415.221 134.339C411.223 133.362 405.661 132.75 399.49 132.75C393.318 132.75 387.756 133.362 383.758 134.339C381.753 134.83 380.183 135.402 379.133 136.009C378.028 136.647 377.74 137.178 377.74 137.5Z" fill="#F9B178" stroke="#453B37" stroke-width="1.5"/>
<line y1="-0.75" x2="5" y2="-0.75" transform="matrix(4.37115e-08 1 1 -4.37115e-08 421.99 138)" stroke="#453B37" stroke-width="1.5"/>
<line y1="-0.75" x2="5" y2="-0.75" transform="matrix(4.37115e-08 1 1 -4.37115e-08 377.99 138)" stroke="#453B37" stroke-width="1.5"/>
<rect x="-0.659145" y="0.83098" width="2.5" height="84.5" rx="1.25" transform="matrix(-0.993417 0.114557 0.114557 0.993417 496.729 141.081)" fill="#A98D7A" stroke="#453B37" stroke-width="1.5"/>
<rect x="-0.847531" y="0.637724" width="2.5" height="84.5" rx="1.25" transform="matrix(-0.99017 -0.139871 -0.139871 0.99017 477.392 141.447)" fill="#A98D7A" stroke="#453B37" stroke-width="1.5"/>
<rect x="-0.572257" y="0.893041" width="2.5" height="70.2898" rx="1.25" transform="matrix(-0.976865 0.213856 0.213856 0.976865 501.315 141.143)" fill="#A98D7A" stroke="#453B37" stroke-width="1.5"/>
<rect x="-0.811039" y="0.683532" width="2.5" height="70.2898" rx="1.25" transform="matrix(-0.996381 -0.0850042 -0.0850042 0.996381 484.429 140.274)" fill="#A98D7A" stroke="#453B37" stroke-width="1.5"/>
<path d="M466.74 143.5C466.74 143.822 467.028 144.353 468.133 144.991C469.183 145.598 470.753 146.17 472.758 146.661C476.756 147.638 482.318 148.25 488.49 148.25C494.661 148.25 500.223 147.638 504.221 146.661C506.226 146.17 507.796 145.598 508.846 144.991C509.952 144.353 510.24 143.822 510.24 143.5C510.24 143.178 509.952 142.647 508.846 142.009C507.796 141.402 506.226 140.83 504.221 140.339C500.223 139.362 494.661 138.75 488.49 138.75C482.318 138.75 476.756 139.362 472.758 140.339C470.753 140.83 469.183 141.402 468.133 142.009C467.028 142.647 466.74 143.178 466.74 143.5Z" fill="#F9B178" stroke="#453B37" stroke-width="1.5"/>
<rect width="45" height="5" transform="matrix(-1 0 0 1 510.99 138)" fill="#F9B178"/>
<path d="M466.74 137.5C466.74 137.822 467.028 138.353 468.133 138.991C469.183 139.598 470.753 140.17 472.758 140.661C476.756 141.638 482.318 142.25 488.49 142.25C494.661 142.25 500.223 141.638 504.221 140.661C506.226 140.17 507.796 139.598 508.846 138.991C509.952 138.353 510.24 137.822 510.24 137.5C510.24 137.178 509.952 136.647 508.846 136.009C507.796 135.402 506.226 134.83 504.221 134.339C500.223 133.362 494.661 132.75 488.49 132.75C482.318 132.75 476.756 133.362 472.758 134.339C470.753 134.83 469.183 135.402 468.133 136.009C467.028 136.647 466.74 137.178 466.74 137.5Z" fill="#F9B178" stroke="#453B37" stroke-width="1.5"/>
<line y1="-0.75" x2="5" y2="-0.75" transform="matrix(4.37115e-08 1 1 -4.37115e-08 510.99 138)" stroke="#453B37" stroke-width="1.5"/>
<line y1="-0.75" x2="5" y2="-0.75" transform="matrix(4.37115e-08 1 1 -4.37115e-08 466.99 138)" stroke="#453B37" stroke-width="1.5"/>
<rect x="426.17" y="0.75" width="116.725" height="12.3114" rx="1.25" fill="#9D958F" stroke="#453B37" stroke-width="1.5"/>
<path d="M429.79 60.1389H538.466C538.872 60.1389 539.253 60.3358 539.487 60.6671L544.668 67.9924C545.254 68.8203 544.662 69.9642 543.648 69.9642H424.788C423.783 69.9642 423.189 68.839 423.755 68.0093L428.758 60.684C428.991 60.3429 429.377 60.1389 429.79 60.1389Z" fill="#B1A7A4" stroke="#453B37" stroke-width="1.5"/>
<rect x="428.38" y="25.058" width="111.753" height="36.0669" rx="1.25" fill="#C3BBB7" stroke="#453B37" stroke-width="1.5"/>
<mask id="path-153-inside-1_57_289" fill="white">
<path fill-rule="evenodd" clip-rule="evenodd" d="M446.965 51.7938C446.965 51.7916 446.965 51.7894 446.965 51.7872C446.965 50.1951 452.282 48.0636 459.072 48.0636C465.863 48.0636 471.273 50.195 471.273 51.7871C471.273 51.7871 471.273 51.7871 471.273 51.7871C471.273 58.8189 465.957 65.7204 459.166 65.7204C452.378 65.7204 446.969 58.8233 446.965 51.7938Z"/>
</mask>
<path fill-rule="evenodd" clip-rule="evenodd" d="M446.965 51.7938C446.965 51.7916 446.965 51.7894 446.965 51.7872C446.965 50.1951 452.282 48.0636 459.072 48.0636C465.863 48.0636 471.273 50.195 471.273 51.7871C471.273 51.7871 471.273 51.7871 471.273 51.7871C471.273 58.8189 465.957 65.7204 459.166 65.7204C452.378 65.7204 446.969 58.8233 446.965 51.7938Z" fill="#F1F1F1"/>
<path d="M446.965 51.7938L448.465 51.7931L448.465 51.7798L446.965 51.7938ZM471.273 51.7871L469.773 51.7872L469.773 52.9032L470.842 53.2238L471.273 51.7871ZM471.273 51.7871H472.773V50.6711L471.704 50.3504L471.273 51.7871ZM448.465 51.7798C448.465 51.7823 448.465 51.7847 448.465 51.7872H445.465C445.465 51.7941 445.465 51.801 445.465 51.8079L448.465 51.7798ZM448.465 51.7872C448.465 52.0157 448.371 52.1184 448.405 52.0724C448.439 52.0279 448.54 51.9181 448.763 51.762C449.208 51.4504 449.938 51.0902 450.95 50.7502C452.958 50.0755 455.822 49.5636 459.072 49.5636V46.5636C455.533 46.5636 452.343 47.1174 449.995 47.9065C448.829 48.2983 447.806 48.7696 447.041 49.3053C446.659 49.573 446.293 49.891 446.009 50.2677C445.726 50.6431 445.465 51.1606 445.465 51.7872H448.465ZM459.072 49.5636C462.323 49.5636 465.212 50.0756 467.246 50.7517C468.271 51.0925 469.015 51.4539 469.469 51.7678C469.697 51.9252 469.802 52.0362 469.836 52.0817C469.873 52.1291 469.773 52.0233 469.773 51.7872L472.773 51.787C472.773 51.1529 472.505 50.6322 472.219 50.2583C471.931 49.8826 471.56 49.5658 471.174 49.2995C470.402 48.766 469.369 48.296 468.192 47.9049C465.823 47.1173 462.612 46.5636 459.072 46.5636V49.5636ZM470.842 53.2238C470.855 53.2276 470.865 53.2304 470.87 53.2319C470.873 53.2327 470.875 53.2333 470.877 53.2337C470.877 53.2339 470.878 53.234 470.878 53.2341C470.878 53.2342 470.878 53.2342 470.879 53.2342C470.879 53.2342 470.879 53.2342 470.879 53.2343C470.879 53.2343 470.879 53.2343 470.879 53.2343C470.879 53.2343 470.879 53.2343 470.879 53.2343C470.879 53.2343 470.879 53.2343 470.879 53.2343C470.879 53.2343 470.879 53.2343 470.879 53.2343C470.879 53.2343 470.878 53.234 470.877 53.2337C470.875 53.2333 470.873 53.2327 470.87 53.2319C470.865 53.2305 470.855 53.2276 470.842 53.2239L471.704 50.3504C471.692 50.3466 471.682 50.3438 471.677 50.3423C471.674 50.3415 471.671 50.3409 471.67 50.3405C471.669 50.3404 471.669 50.3402 471.669 50.3401C471.668 50.3401 471.668 50.34 471.668 50.34C471.668 50.34 471.668 50.34 471.668 50.34C471.668 50.34 471.668 50.34 471.668 50.34C471.668 50.34 471.668 50.34 471.668 50.34C471.668 50.34 471.668 50.34 471.668 50.34C471.668 50.34 471.668 50.34 471.668 50.34C471.668 50.3399 471.669 50.3402 471.67 50.3405C471.671 50.3409 471.674 50.3415 471.677 50.3423C471.682 50.3438 471.692 50.3466 471.704 50.3504L470.842 53.2238ZM469.773 51.7871C469.773 54.939 468.576 58.0844 466.616 60.4284C464.659 62.7681 462.027 64.2204 459.166 64.2204V67.2204C463.096 67.2204 466.517 65.222 468.917 62.353C471.313 59.4882 472.773 55.6669 472.773 51.7871H469.773ZM459.166 64.2204C456.304 64.2204 453.647 62.7665 451.667 60.4246C449.684 58.0794 448.467 54.937 448.465 51.7931L445.465 51.7946C445.467 55.6801 446.957 59.501 449.376 62.3618C451.798 65.2258 455.24 67.2204 459.166 67.2204V64.2204Z" fill="#453B37" mask="url(#path-153-inside-1_57_289)"/>
<ellipse cx="459.212" cy="52.0273" rx="9.4176" ry="2.28218" fill="#E7D5C6"/>
<ellipse cx="456.465" cy="59.9416" rx="0.323367" ry="0.29695" fill="black"/>
<ellipse cx="461.962" cy="59.9416" rx="0.323367" ry="0.29695" fill="black"/>
<mask id="path-158-inside-2_57_289" fill="white">
<path fill-rule="evenodd" clip-rule="evenodd" d="M521.547 51.2347C521.547 49.6426 516.136 47.5111 509.346 47.5111C502.556 47.5111 497.239 49.6426 497.239 51.2347C497.239 51.2354 497.239 51.2362 497.239 51.237C497.24 58.268 502.65 65.1679 509.44 65.1679C516.23 65.1679 521.547 58.2664 521.547 51.2347Z"/>
</mask>
<path fill-rule="evenodd" clip-rule="evenodd" d="M521.547 51.2347C521.547 49.6426 516.136 47.5111 509.346 47.5111C502.556 47.5111 497.239 49.6426 497.239 51.2347C497.239 51.2354 497.239 51.2362 497.239 51.237C497.24 58.268 502.65 65.1679 509.44 65.1679C516.23 65.1679 521.547 58.2664 521.547 51.2347Z" fill="#F1F1F1"/>
<path d="M521.547 51.2347L520.047 51.2347L520.047 51.2347L521.547 51.2347ZM497.239 51.237L498.739 51.2367L498.739 51.2321L497.239 51.237ZM509.346 49.0111C512.597 49.0111 515.486 49.5231 517.519 50.1992C518.544 50.54 519.288 50.9014 519.743 51.2153C519.97 51.3727 520.075 51.4837 520.11 51.5292C520.146 51.5766 520.047 51.4708 520.047 51.2347H523.047C523.047 50.6005 522.778 50.0798 522.492 49.7059C522.205 49.3301 521.833 49.0134 521.448 48.747C520.676 48.2136 519.642 47.7436 518.466 47.3524C516.097 46.5649 512.885 46.0111 509.346 46.0111V49.0111ZM498.739 51.2347C498.739 51.4632 498.644 51.5659 498.679 51.5199C498.712 51.4754 498.814 51.3656 499.037 51.2095C499.481 50.8978 500.212 50.5377 501.224 50.1977C503.232 49.523 506.095 49.0111 509.346 49.0111V46.0111C505.806 46.0111 502.616 46.5649 500.268 47.354C499.102 47.7458 498.079 48.2171 497.315 48.7528C496.933 49.0205 496.566 49.3385 496.282 49.7152C496 50.0905 495.739 50.6081 495.739 51.2347H498.739ZM498.739 51.2321C498.739 51.2329 498.739 51.2338 498.739 51.2347H495.739C495.739 51.2371 495.739 51.2395 495.739 51.2419L498.739 51.2321ZM509.44 63.6679C506.577 63.6679 503.92 62.2134 501.939 59.8706C499.956 57.5246 498.739 54.3812 498.739 51.2367L495.739 51.2372C495.739 55.1237 497.229 58.9458 499.648 61.8075C502.07 64.6725 505.513 66.6679 509.44 66.6679V63.6679ZM520.047 51.2347C520.047 54.3866 518.849 57.532 516.889 59.8759C514.932 62.2156 512.3 63.6679 509.44 63.6679V66.6679C513.37 66.6679 516.791 64.6695 519.19 61.8005C521.586 58.9357 523.047 55.1145 523.047 51.2347L520.047 51.2347Z" fill="#453B37" mask="url(#path-158-inside-2_57_289)"/>
<ellipse cx="509.485" cy="51.4749" rx="9.4176" ry="2.28218" fill="#E7D5C6"/>
<ellipse cx="506.738" cy="59.3891" rx="0.323367" ry="0.29695" fill="black"/>
<ellipse cx="512.235" cy="59.3891" rx="0.323367" ry="0.29695" fill="black"/>
<path d="M458.207 36.7394C459.532 36.7394 459.525 36.5729 460.505 35.811L461.633 32.1902L460.528 31.4899C459.78 31.1751 458.283 31.4899 457.489 31.4899L452.927 31.4899C452.15 31.4899 452.688 33.7545 452.927 34.2327C453.126 34.6313 453.246 35.2537 453.298 35.6949C453.361 36.2327 455.003 36.361 455.434 36.4841C456.327 36.7394 457.243 36.7394 458.184 36.7394H458.207Z" fill="#ADA59F" stroke="#453B37" stroke-width="1.5" stroke-linecap="round"/>
<path d="M462.165 41.2422C461.017 40.0949 460.646 37.8932 459.423 36.7383L455.28 36.462C454.691 38.2263 452.045 40.0362 452.045 41.7529C452.045 44.2691 455.519 41.1836 456.118 40.9173C458.575 39.8253 459.554 42.5884 461.561 42.5884C462.661 42.5884 463.096 42.1738 462.165 41.2422Z" fill="#B9B2AE" stroke="#453B37" stroke-width="1.5" stroke-linecap="round"/>
<path d="M452.045 34.4417C451.563 34.8696 449.582 34.7415 449.538 35.4861C449.49 36.3011 449.579 36.9484 450.42 36.9484C451.195 36.9484 451.633 36.3582 452.254 36.3217C453.099 36.272 452.843 34.4417 452.254 34.4417" stroke="#453B37" stroke-width="1.5" stroke-linecap="round"/>
<path d="M447.96 34.8594C448.283 35.0443 448.387 35.8383 448.911 35.9039C450.406 35.9039 449.395 37.0244 449.329 38.2017C449.278 39.1261 448.638 39.1627 448.285 39.78C447.314 41.4791 443.49 42.3724 441.797 43.1339C440.279 43.8171 438.706 44.4931 437.109 44.9791C435.999 45.3168 434.517 46.3485 433.407 46.3485C432.01 46.3485 431.034 45.7092 430.482 44.4685C429.793 42.9171 429.413 40.9885 430.633 39.7684C431.38 39.0219 432.24 38.7214 433.244 38.457C434.672 38.0813 435.955 37.3123 437.411 36.9483C440.046 36.2896 442.867 36.0963 445.407 35.0683C446.471 34.6373 446.951 34.2831 447.96 34.8594Z" fill="#6E645E" stroke="#453B37" stroke-width="1.5" stroke-linecap="round"/>
<path d="M430.695 39.7767C433.45 39.7767 435.391 42.8619 435.391 45.3013" stroke="#453B37" stroke-width="1.5" stroke-linecap="round"/>
<rect x="450.781" y="27.8203" width="13.4163" height="4.577" rx="2.25" fill="#B9B2AE" stroke="#453B37" stroke-width="1.5"/>
<path d="M507.294 36.1869C505.969 36.1869 505.976 36.0204 504.996 35.2585L503.868 31.6377L504.973 30.9374C505.721 30.6226 507.218 30.9374 508.012 30.9374L512.574 30.9374C513.351 30.9374 512.813 33.202 512.574 33.6802C512.375 34.0788 512.255 34.7012 512.203 35.1425C512.14 35.6803 510.499 35.8085 510.068 35.9316C509.174 36.187 508.258 36.1869 507.317 36.1869H507.294Z" fill="#ADA59F" stroke="#453B37" stroke-width="1.5" stroke-linecap="round"/>
<path d="M503.336 40.6898C504.484 39.5424 504.855 37.3407 506.078 36.1858L510.221 35.9095C510.81 37.6738 513.456 39.4837 513.456 41.2004C513.456 43.7166 509.982 40.6311 509.383 40.3648C506.926 39.2728 505.947 42.0359 503.94 42.0359C502.84 42.0359 502.405 41.6213 503.336 40.6898Z" fill="#B9B2AE" stroke="#453B37" stroke-width="1.5" stroke-linecap="round"/>
<path d="M513.456 33.8892C513.938 34.3171 515.919 34.189 515.963 34.9336C516.011 35.7486 515.922 36.3959 515.081 36.3959C514.306 36.3959 513.868 35.8057 513.247 35.7692C512.402 35.7195 512.658 33.8892 513.247 33.8892" stroke="#453B37" stroke-width="1.5" stroke-linecap="round"/>
<path d="M517.541 34.3069C517.218 34.4918 517.114 35.2858 516.59 35.3514C515.095 35.3514 516.106 36.472 516.172 37.6492C516.223 38.5736 516.863 38.6102 517.216 39.2275C518.187 40.9266 522.011 41.8199 523.703 42.5814C525.222 43.2646 526.795 43.9406 528.392 44.4266C529.502 44.7643 530.984 45.796 532.094 45.796C533.491 45.796 534.467 45.1567 535.019 43.916C535.708 42.3646 536.088 40.436 534.868 39.2159C534.121 38.4694 533.261 38.1689 532.256 37.9045C530.829 37.5288 529.546 36.7598 528.09 36.3958C525.455 35.7371 522.634 35.5438 520.094 34.5158C519.03 34.0848 518.55 33.7306 517.541 34.3069Z" fill="#6E645E" stroke="#453B37" stroke-width="1.5" stroke-linecap="round"/>
<path d="M534.806 39.2242C532.051 39.2242 530.11 42.3094 530.11 44.7488" stroke="#453B37" stroke-width="1.5" stroke-linecap="round"/>
<rect x="-0.75" y="0.75" width="13.4163" height="4.577" rx="2.25" transform="matrix(-1 0 0 1 513.97 26.5178)" fill="#B9B2AE" stroke="#453B37" stroke-width="1.5"/>
<rect x="423.407" y="12.3516" width="123.355" height="16.1786" rx="1.25" fill="#C2BAB6" stroke="#453B37" stroke-width="1.5"/>
<rect x="426.17" y="0.75" width="116.725" height="5.68191" rx="1.25" fill="#736863" stroke="#453B37" stroke-width="1.5"/>
<rect x="422.75" y="68.75" width="125.012" height="8.99664" rx="1.25" fill="#726764" stroke="#453B37" stroke-width="1.5"/>
<circle cx="431.773" cy="20.1647" r="3.39341" fill="#6B6460" stroke="#453B37" stroke-width="1.5"/>
<circle cx="527.624" cy="20.4409" r="2.01227" fill="#6B6460" stroke="#453B37" stroke-width="1.5"/>
<circle cx="535.911" cy="20.4409" r="2.01227" fill="#6B6460" stroke="#453B37" stroke-width="1.5"/>
<rect x="443.296" y="16.7712" width="17.2835" height="6.78682" rx="2.25" fill="#766C69" stroke="#453B37" stroke-width="1.5"/>
<rect x="466.499" y="16.7712" width="2.91964" height="6.78682" rx="1.45982" fill="#766C69" stroke="#453B37" stroke-width="1.5"/>
<rect x="480.31" y="16.7712" width="17.2835" height="6.78682" rx="2.25" fill="#766C69" stroke="#453B37" stroke-width="1.5"/>
<path d="M366.791 96.4146C366.636 94.9351 385.283 95.8582 385.283 97.3459C385.131 97.9029 385.027 99.3718 384.863 101.836C384.666 104.793 384.321 107.847 384.024 107.979C383.735 108.108 371.063 112.022 367.362 107.001C367.332 105.543 366.944 97.8672 366.791 96.4146Z" fill="#DC9269" stroke="#453B37" stroke-width="1.8" stroke-linecap="round"/>
<path d="M364.208 95.4586C364.125 93.9604 363.723 92.4922 364.051 90.9764C364.656 90.6645 365.235 90.8191 365.466 90.8191C366.289 90.8191 367.138 90.9057 367.952 91.0157C369.491 91.2237 371.034 91.2704 372.578 91.387C374.232 91.5118 375.874 91.7766 377.524 91.9025C379.19 92.0297 380.91 92.1808 382.583 92.0729C384.106 91.9746 385.737 92.0595 387.231 91.7234C387.886 91.5761 388.613 90.8577 389.293 90.8977C389.443 90.9066 389.372 91.6343 389.372 91.7627C389.372 92.0813 389.208 92.3243 389.092 92.6102C388.85 93.2102 388.705 93.8091 388.542 94.432C388.391 95.0067 388.276 96.0115 387.751 96.245C386.668 96.7265 385.238 96.643 384.086 96.7343C382.409 96.8671 380.745 96.7323 379.07 96.7168C376.888 96.6966 374.707 96.692 372.526 96.6338C371.516 96.6069 370.456 96.5095 369.45 96.4023C368.325 96.2822 367.162 96.256 366.069 95.9305C365.86 95.8683 364.225 95.7575 364.208 95.4586Z" fill="#DC9269" stroke="#453B37" stroke-width="1.8" stroke-linecap="round"/>
<path d="M386.419 90.8973C386.259 91.0736 382.956 92.3959 382.883 91.8108C382.913 91.8108 382.251 91.605 382.033 91.4958C381.6 91.2797 381.109 90.8908 380.93 90.4247C380.157 88.4157 380.605 86.8942 381.403 84.9358C382.315 82.6973 384.242 80.2909 386.175 78.8798C387.129 78.1829 387.898 77.4824 388.695 76.6432C389.082 76.2358 388.989 76.7875 389.12 77.1472C389.277 77.5797 389.766 78.4346 390.112 78.7065C390.576 79.0708 390.573 80.2582 390.679 80.8171C390.785 81.3704 391.105 81.6322 391.105 82.2503C391.105 82.9179 391 83.6334 390.711 84.2349C389.882 85.9617 389.618 87.4855 388.27 88.9836C387.675 89.6441 387.013 90.2442 386.419 90.8973Z" fill="#A79769" stroke="#453B37" stroke-width="1.8" stroke-linecap="round"/>
<path d="M364.471 81.3684C364.874 81.7096 365.561 82.5308 366.156 82.597C367.006 82.597 366.865 83.8935 366.865 84.5815C366.865 85.5078 366.723 86.4538 366.723 87.3535C366.723 89.6359 365.145 90.726 363.148 91.4171C360.66 92.2784 358.499 93.2284 355.793 93.2284C352.193 93.2284 348.805 94.3998 345.736 91.9448C344.998 91.3543 343.119 90.7231 344.484 89.8893C345.725 89.1306 347.214 88.7228 348.295 87.7C349.379 86.6748 350.21 85.3657 351.414 84.4712C352.484 83.6762 353.709 83.0981 354.745 82.2426C356.442 80.841 358.09 79.6956 360.344 79.7619C361.174 79.7863 361.973 80.2904 362.754 80.5415C363.35 80.7331 363.987 80.958 364.471 81.3684Z" fill="#A79769" stroke="#453B37" stroke-width="1.8" stroke-linecap="round"/>
<path d="M372.764 83.3789C372.741 83.3291 372.726 83.2784 372.72 83.2264C373.167 83.3382 373.027 83.3721 372.764 83.3789C372.974 83.8315 373.818 84.2069 373.886 84.7227C373.952 85.2308 373.981 85.6924 373.996 86.2032C374.014 86.8445 374.138 87.4912 374.138 88.1562C374.138 89.3208 373.749 90.3341 373.177 91.3063C372.484 92.485 371.104 91.4891 369.995 91.448C368.549 91.3945 367.111 91.0017 365.711 90.7472C365.196 90.6536 362.438 89.77 362.522 89.3926C362.706 88.5657 363.575 87.552 364.152 86.975C365.138 85.9887 365.992 84.8488 366.908 83.8013C367.671 82.9299 369.469 82.9429 370.531 82.9429C371.069 82.9429 371.546 83.3681 372.082 83.3681C372.169 83.3681 372.52 83.3853 372.764 83.3789Z" fill="#A7986F"/>
<path d="M372.72 83.2264C372.778 83.7505 373.811 84.1501 373.886 84.7227C373.952 85.2308 373.981 85.6924 373.996 86.2032C374.014 86.8445 374.138 87.4912 374.138 88.1562C374.138 89.3208 373.749 90.3341 373.177 91.3063C372.484 92.485 371.104 91.4891 369.995 91.448C368.549 91.3945 367.111 91.0017 365.711 90.7472C365.196 90.6536 362.438 89.77 362.522 89.3926C362.706 88.5657 363.575 87.552 364.152 86.975C365.138 85.9887 365.992 84.8488 366.908 83.8013C367.671 82.9299 369.469 82.9429 370.531 82.9429C371.069 82.9429 371.546 83.3681 372.082 83.3681C372.261 83.3681 373.583 83.442 372.72 83.2264Z" stroke="#453B37" stroke-width="1.8" stroke-linecap="round"/>
<path d="M365.101 78.9114C365.923 79.1306 366.453 80.2359 367.29 80.3289C368.177 80.8359 368.33 80.518 369.133 81.3212C370.305 82.4934 370.001 83.5464 368.676 84.3295C366.543 85.5901 364.244 86.6063 361.904 87.4166C359.675 88.1881 356.978 88.9214 354.666 88.0544C354.116 87.8481 352.112 87.471 353.54 87.2669C354.166 87.1775 354.811 86.7123 355.249 86.2747C356.781 84.7426 358.261 83.725 359.006 81.5968C359.679 79.6726 360.468 78.7696 362.542 78.7696C363.4 78.7696 364.273 78.6905 365.101 78.9114Z" fill="#A89C68" stroke="#453B37" stroke-width="1.8" stroke-linecap="round"/>
<path d="M362.466 59.6648C362.037 59.5238 361.563 59.3191 362.24 59.2853C362.421 59.3214 362.459 59.4744 362.466 59.6648C362.651 59.7259 362.828 59.7751 362.9 59.7932C364.371 60.1681 365.666 60.498 367.051 61.2325C368.356 61.9244 369.62 62.4207 370.834 63.3396C371.819 64.0856 372.716 65.2382 373.542 66.2274C375.99 69.1622 377.637 74.4436 376.72 78.5972C376.354 80.2564 376.059 82.326 374.782 83.3288C373.611 84.2483 371.68 83.8368 370.347 83.8368C368.455 83.8368 366.616 82.5781 365.019 81.4663C363.795 80.6146 362.805 78.7456 362.805 77.0639C362.805 74.8119 363.55 73.2766 364.328 71.307C364.983 69.6501 364.783 67.6117 364.783 65.8229C364.783 64.1717 364.841 63.1279 364.069 61.7404C363.817 61.2868 363.035 60.7856 362.664 60.5081C362.415 60.3214 362.475 59.9508 362.466 59.6648Z" fill="#ADA17A"/>
<path d="M362.24 59.2853C361.27 59.3337 362.663 59.7331 362.9 59.7932C364.371 60.1681 365.666 60.498 367.051 61.2325C368.356 61.9244 369.62 62.4207 370.834 63.3396C371.819 64.0856 372.716 65.2382 373.542 66.2274C375.99 69.1622 377.637 74.4436 376.72 78.5972C376.354 80.2564 376.059 82.326 374.782 83.3288C373.611 84.2483 371.68 83.8368 370.347 83.8368C368.455 83.8368 366.616 82.5781 365.019 81.4663C363.795 80.6146 362.805 78.7456 362.805 77.0639C362.805 74.8119 363.55 73.2766 364.328 71.307C364.983 69.6501 364.783 67.6117 364.783 65.8229C364.783 64.1717 364.841 63.1279 364.069 61.7404C363.817 61.2868 363.035 60.7856 362.664 60.5081C362.249 60.197 362.693 59.3757 362.24 59.2853Z" stroke="#453B37" stroke-width="1.8" stroke-linecap="round"/>
<path d="M368.983 71.1228C369.136 72.646 369.256 74.3998 368.106 75.5498C368.106 75.5498 363.989 78.6486 363.321 78.8011C362.383 79.0155 361.429 78.7845 360.486 78.9192C359.726 79.0278 358.999 79.1948 358.218 79.1948C357.475 79.1948 356.735 78.9113 356.021 78.9113C355.086 78.9113 354.693 77.5742 354.249 76.9583C353.981 76.5865 353.333 76.2813 352.965 76.0054C352.456 75.6236 352.062 75.1196 351.556 74.7217C350.903 74.2087 350.449 73.4101 349.863 72.8238C349.253 72.2147 349.144 72.4284 349.571 71.8946C349.792 71.6183 350.304 71.6004 350.563 71.2252C350.916 70.716 351.35 70.2677 351.729 69.7762C352.792 68.3981 353.748 66.5188 355.375 65.8071C358.194 64.5741 361.087 66.6206 363.754 67.2876C365.012 67.602 366.542 67.7896 367.716 68.3114C368.655 68.729 368.888 70.1721 368.983 71.1228Z" fill="#D1BB81" stroke="#453B37" stroke-width="1.8" stroke-linecap="round"/>
<path d="M379.623 76.7851C378.203 76.7851 377.039 77.7032 376.079 78.7696C376.079 79.7289 374.347 80.687 373.811 81.4314C373.59 81.7387 373.147 81.9356 372.89 82.2504C372.644 82.55 372.546 82.9376 372.315 83.2348C371.788 83.912 371.543 84.7231 371.543 85.5737C371.543 86.2322 371.496 86.7107 371.795 87.2748C372.136 87.9196 372.701 88.3004 372.992 89.086C373.552 90.5982 375.213 91.3697 376.284 92.4409C377.051 93.2077 378.598 93.5368 379.623 93.8663C380.078 94.0126 382.458 95.142 382.458 94.4727V92.2282C382.458 88.8224 382.974 84.7041 384.442 81.6047C385.162 80.0861 384.572 77.2155 382.671 76.7929C381.746 76.5876 380.566 76.7851 379.623 76.7851Z" fill="#D0BA78" stroke="#453B37" stroke-width="1.8" stroke-linecap="round"/>
<path d="M376.079 66.8624C377.442 66.8624 377.645 67.6864 378.347 68.5634C379.083 68.858 379.077 68.7405 379.654 69.3824C380.011 69.7787 380.072 70.4372 380.221 70.9417C380.511 71.9199 381.182 72.6155 381.182 73.6665C381.182 74.4304 381.461 76.1595 380.867 76.7536C379.972 77.6485 378.589 78.2609 377.386 78.6279C375.751 79.1267 374.256 79.9036 372.504 79.9036C369.147 79.9036 365.97 78.4638 363.061 76.8638C361.809 76.1751 360.605 75.4584 359.289 74.8793C357.934 74.2832 357.384 72.9826 356.722 71.7529C356.377 71.1121 359.164 71.0171 359.699 70.9102C361.458 70.5583 363.142 69.8321 364.881 69.3431C366.396 68.9168 367.842 68.2799 369.33 67.7838C370.301 67.4602 371.537 66.7294 372.535 66.5868C373.715 66.4182 374.908 66.8624 376.079 66.8624Z" fill="#D2BC75" stroke="#453B37" stroke-width="1.8" stroke-linecap="round"/>
<path d="M385.504 91.3657C385.507 91.3461 385.514 91.3248 385.525 91.302C385.324 91.1021 383.122 90.7236 382.997 90.4682C382.677 89.8148 383.146 88.955 383.61 88.4405C384.604 87.3378 385.443 86.1864 386.575 85.1581C387.767 84.0756 387.125 81.057 388.34 80.0059C389.303 79.1729 392.362 80.3923 393.448 79.6984C394.369 79.1097 395.516 78.5018 396.12 77.6043C397.185 76.0225 398.848 73.7742 398.848 71.8371C398.848 71.1311 400.537 70.8023 400.75 70.1253C400.919 69.5895 400.889 68.3949 401.132 67.8706C401.704 66.6376 399.702 64.573 400.368 63.3632C401.177 61.8937 401.45 58.7627 402.838 57.6423C402.838 57.6423 406.425 60.5199 406.425 62.1144C406.425 63.3684 406.19 64.5379 405.684 65.7126C405.538 66.0517 402.838 70.1253 402.838 70.1253C402.858 70.1911 406.394 66.8892 406.553 66.8345C409.983 65.6582 413.731 63.9436 417.297 65.5631C417.955 65.8616 419.109 66.7669 419.109 67.5076C419.109 69.0888 419.705 70.5013 419.073 72.0698C418.579 73.2934 418.074 74.9854 416.474 75.3273C415.437 75.5487 414.885 74.5599 414.168 74.0891C412.373 72.9126 411.047 70.1253 408.484 70.1253C407.482 70.1253 406.638 71.0932 405.839 71.5546C404.684 72.2223 403.809 73.0161 402.838 73.898C401.654 74.9732 400.704 76.248 399.507 77.3051C397.969 78.6626 396.17 79.7154 394.738 81.1776C393.157 82.793 391.63 84.2258 390.153 85.9143C389.363 86.8179 388.443 87.5752 387.719 88.5319C387.182 89.2415 386.638 89.936 386.099 90.651C385.977 90.813 385.618 91.1084 385.525 91.302C385.549 91.326 385.545 91.3474 385.504 91.3657Z" fill="#A5996E"/>
<path d="M385.504 91.3657C385.53 91.1797 385.963 90.832 386.099 90.651C386.638 89.936 387.182 89.2415 387.719 88.5319C388.443 87.5752 389.363 86.8179 390.153 85.9143C391.63 84.2258 393.157 82.793 394.738 81.1776C396.17 79.7154 397.969 78.6626 399.507 77.3051C400.704 76.248 401.654 74.9732 402.838 73.898C403.809 73.0161 404.684 72.2223 405.839 71.5546C406.638 71.0932 407.482 70.1253 408.484 70.1253C411.047 70.1253 412.373 72.9126 414.168 74.0891C414.885 74.5599 415.437 75.5487 416.474 75.3273C418.074 74.9854 418.579 73.2934 419.073 72.0698C419.705 70.5013 419.109 69.0888 419.109 67.5076C419.109 66.7669 417.955 65.8616 417.297 65.5631C413.731 63.9436 409.983 65.6582 406.553 66.8345C406.394 66.8892 402.858 70.1911 402.838 70.1253C402.838 70.1253 405.538 66.0517 405.684 65.7126C406.19 64.5379 406.425 63.3684 406.425 62.1144C406.425 60.5199 402.838 57.6423 402.838 57.6423C401.45 58.7627 401.177 61.8937 400.368 63.3632C399.702 64.573 401.704 66.6376 401.132 67.8706C400.889 68.3949 400.919 69.5895 400.75 70.1253C400.537 70.8023 398.848 71.1311 398.848 71.8371C398.848 73.7742 397.185 76.0225 396.12 77.6043C395.516 78.5018 394.369 79.1097 393.448 79.6984C392.362 80.3923 389.303 79.1729 388.34 80.0059C387.125 81.057 387.767 84.0756 386.575 85.1581C385.443 86.1864 384.604 87.3378 383.61 88.4405C383.146 88.955 382.677 89.8148 382.997 90.4682C383.137 90.7542 385.881 91.1946 385.504 91.3657Z" stroke="#453B37" stroke-width="1.8" stroke-linecap="round"/>
<path d="M368.708 56.9712C373.945 57.8776 378.579 60.0479 383.025 62.8933C383.477 64.0231 384.159 64.798 384.159 66.1536C384.159 67.0148 384.113 67.7806 383.907 68.6264C383.633 69.7519 382.82 70.6027 382.466 71.6662C381.983 73.113 380.635 73.2953 379.276 72.6742C375.799 71.0847 371.884 68.6526 369.424 65.6811C367.975 63.9295 366.362 62.3403 365.526 60.137C364.978 58.6923 363.888 57.2947 363.888 55.7348C363.888 54.7686 364.159 54.8994 364.888 55.3095C366.034 55.9541 367.401 56.745 368.708 56.9712Z" fill="#D5BD77" stroke="#453B37" stroke-width="1.8" stroke-linecap="round"/>
<path d="M380.544 66.7206C381.322 67.9314 381.424 70.2732 382.741 70.9732C382.961 71.854 386.482 69.911 387.025 69.5872C389.083 68.3611 390.999 67.0366 392.207 64.9093C392.864 63.7538 392.084 61.0703 391.215 60.2315C390.418 59.4621 389.222 58.849 388.27 58.2863C387.454 57.8042 387.027 56.2819 386.096 56.1128C385.812 56.0612 385.723 57.2097 385.576 57.3649C384.93 58.0491 384.269 58.6875 383.608 59.3495C382.648 60.309 381.122 61.4945 380.56 62.7436C380.069 63.8333 379.882 65.6906 380.544 66.7206Z" fill="#A5996E" stroke="#453B37" stroke-width="1.8" stroke-linecap="round"/>
<path d="M399.893 86.1408C399.604 87.1545 398.901 87.9206 398.901 88.9758C398.901 89.4139 398.072 90.2127 397.767 90.5351C396.774 91.5866 397.027 90.0864 396.924 89.2672C396.845 88.6322 396.919 88.0861 396.633 87.4795C396.338 86.8541 395.792 86.4237 395.428 85.8573C394.994 85.1812 394.402 84.6508 393.94 83.983C393.637 83.545 393.454 82.9836 393.089 82.5969C392.386 81.8521 391.68 81.188 390.963 80.4707C390.402 79.9096 389.379 79.6935 388.695 79.2658C388.162 78.9328 387.716 79.1523 387.955 78.3759C388.128 77.8124 388.416 77.2787 388.585 76.7221C389.014 75.3056 389.95 73.7562 390.75 72.5246C391.241 71.7693 391.795 70.8519 392.522 70.296C392.834 70.0576 393.325 69.4139 393.727 69.4139C395.283 69.4139 396.448 70.3028 397.909 70.6582C399.941 71.1524 403.915 71.1934 404.571 73.8162C404.938 75.2825 404.565 76.8061 404.437 78.2735C404.302 79.8294 403.285 81.8729 402.193 82.9907C401.237 83.9694 400.279 84.7926 399.893 86.1408Z" fill="#D5BD77" stroke="#453B37" stroke-width="1.8" stroke-linecap="round"/>
<path d="M385.009 67.5711C384.124 68.8749 376.889 75.9475 383.056 77.5213C385.268 78.0858 385.969 80.8071 387.327 80.8071C388.706 80.8071 390.493 79.7758 391.845 79.5886C393.687 79.3336 394.557 78.4082 395.775 77.0685C398.145 74.461 398.469 69.9957 399.106 66.7206C399.455 64.9255 399.429 62.1832 399.043 60.389C398.846 59.4749 398.669 58.4542 398.271 57.6012C398.108 57.2517 398.1 57.8522 398.051 58.0737C397.392 61.0357 394.046 62.3958 391.451 63.035C390.181 63.348 388.562 63.5705 387.561 64.4604C386.603 65.3121 385.728 66.5131 385.009 67.5711Z" fill="#D3BD78" stroke="#453B37" stroke-width="1.8" stroke-linecap="round"/>
<path d="M436.63 105.405C436.63 106.307 435.923 107.534 434.16 108.565C432.418 109.583 429.713 110.357 425.941 110.357C422.156 110.357 419.248 109.701 417.306 108.787C416.334 108.329 415.621 107.816 415.157 107.304C414.693 106.792 414.5 106.308 414.5 105.891C414.5 105.478 414.69 105.018 415.148 104.541C415.607 104.062 416.317 103.589 417.29 103.172C419.235 102.338 422.148 101.763 425.941 101.763C429.748 101.763 432.472 102.22 434.225 102.933C435.992 103.651 436.63 104.558 436.63 105.405Z" fill="#E8E8E8" stroke="black"/>
<path d="M432.354 105.494C432.354 105.674 432.221 105.919 431.901 106.198C431.588 106.471 431.122 106.754 430.522 107.009C429.323 107.519 427.608 107.91 425.565 107.91C423.522 107.91 421.834 107.519 420.662 107.009C420.075 106.755 419.623 106.472 419.32 106.2C419.011 105.922 418.881 105.676 418.881 105.494C418.881 105.323 418.999 105.128 419.303 104.924C419.602 104.724 420.052 104.537 420.641 104.377C421.817 104.059 423.512 103.859 425.565 103.859C427.619 103.859 429.339 104.059 430.542 104.377C431.145 104.537 431.608 104.724 431.918 104.925C432.233 105.13 432.354 105.325 432.354 105.494Z" stroke="#453A36" stroke-opacity="0.5" stroke-width="0.3"/>
<mask id="path-204-inside-3_57_289" fill="white">
<path fill-rule="evenodd" clip-rule="evenodd" d="M415.721 94.4711C415.721 94.4669 415.721 94.4626 415.721 94.4583C415.721 92.9796 419.995 91 425.453 91C430.911 91 435.26 92.9796 435.26 94.4582C435.26 94.4582 435.26 94.4583 435.26 94.4583C435.26 100.989 430.987 107.399 425.529 107.399C420.074 107.399 415.727 100.997 415.721 94.4711Z"/>
</mask>
<path fill-rule="evenodd" clip-rule="evenodd" d="M415.721 94.4711C415.721 94.4669 415.721 94.4626 415.721 94.4583C415.721 92.9796 419.995 91 425.453 91C430.911 91 435.26 92.9796 435.26 94.4582C435.26 94.4582 435.26 94.4583 435.26 94.4583C435.26 100.989 430.987 107.399 425.529 107.399C420.074 107.399 415.727 100.997 415.721 94.4711Z" fill="#F1F1F1"/>
<path d="M415.721 94.4711L416.721 94.4703L416.721 94.4623L416.721 94.4543L415.721 94.4711ZM435.26 94.4582L434.26 94.4583L434.26 95.1838L434.95 95.4089L435.26 94.4582ZM435.26 94.4583H436.26V93.7327L435.571 93.5076L435.26 94.4583ZM416.721 94.4543C416.721 94.4556 416.721 94.457 416.721 94.4583H414.721C414.721 94.4682 414.721 94.4781 414.722 94.488L416.721 94.4543ZM416.721 94.4583C416.721 94.5584 416.679 94.4149 417.104 94.0712C417.483 93.7645 418.086 93.424 418.902 93.1068C420.527 92.4759 422.836 92 425.453 92V90C422.612 90 420.055 90.5139 418.179 91.2424C417.245 91.605 416.438 92.0367 415.845 92.517C415.298 92.9603 414.721 93.6188 414.721 94.4583H416.721ZM425.453 92C428.07 92 430.399 92.476 432.045 93.1081C432.872 93.4259 433.485 93.7673 433.872 94.0756C434.306 94.4228 434.26 94.5654 434.26 94.4583L436.26 94.4582C436.26 93.6117 435.67 92.9524 435.119 92.5125C434.519 92.0338 433.704 91.6031 432.762 91.2411C430.869 90.5138 428.294 90 425.453 90V92ZM434.95 95.4089L434.95 95.4089L435.571 93.5076L435.571 93.5076L434.95 95.4089ZM434.26 94.4583C434.26 97.5183 433.255 100.547 431.631 102.791C430.003 105.04 427.84 106.399 425.529 106.399V108.399C428.675 108.399 431.378 106.553 433.251 103.964C435.128 101.37 436.26 97.929 436.26 94.4583H434.26ZM425.529 106.399C423.217 106.399 421.035 105.04 419.389 102.792C417.746 100.549 416.724 97.5242 416.721 94.4703L414.721 94.472C414.725 97.9444 415.879 101.384 417.775 103.973C419.667 106.557 422.386 108.399 425.529 108.399V106.399Z" fill="black" mask="url(#path-204-inside-3_57_289)"/>
<ellipse cx="425.565" cy="94.6814" rx="7.56991" ry="2.11958" fill="#BD6156"/>
</svg>
