<svg width="168" height="54" viewBox="0 0 168 54" fill="none" xmlns="http://www.w3.org/2000/svg">
<path d="M4.10764 20.2185C3.89459 19.5352 3.79853 18.8501 3.81946 18.1633C3.86367 17.4683 3.99809 16.8071 4.22274 16.1797C4.47067 15.5441 4.8094 14.9812 5.23893 14.4911C5.66031 13.9777 6.15329 13.5569 6.71786 13.2286C7.90172 12.579 9.04834 12.3083 10.1577 12.4165C11.2822 12.4933 12.3427 12.9845 13.3392 13.8901C13.7583 14.2661 14.0971 14.7486 14.3555 15.3377C14.6373 15.9185 14.8137 16.4971 14.8847 17.0733C14.9103 17.2211 14.8818 17.401 14.7992 17.6129C14.7165 17.8247 14.5949 18.0372 14.4342 18.2502C14.2887 18.4318 14.1275 18.6059 13.9506 18.7723C13.7655 18.9155 13.5839 19.0314 13.4058 19.1198C13.1893 19.2479 12.9291 19.3259 12.6253 19.3538C12.3447 19.3736 12.0275 19.2887 11.6736 19.0989C11.4769 18.9849 11.3331 18.7608 11.2423 18.4267C11.1666 18.0612 11.0601 17.7195 10.9227 17.4017C10.8086 17.0758 10.6177 16.829 10.35 16.6614C10.0822 16.4938 9.66547 16.5351 9.09973 16.7854C8.36403 17.1475 7.91879 17.63 7.76398 18.233C7.62431 18.8046 7.62143 19.3936 7.75532 20.0001C7.88106 20.5833 8.0685 21.1188 8.31763 21.6065C8.56677 22.0943 8.71986 22.4196 8.7769 22.5826C9.08658 23.4673 9.35668 24.3136 9.5872 25.1214C9.80957 25.906 10.0203 26.6947 10.2194 27.4874C10.4336 28.2487 10.6676 29.0293 10.9214 29.829C11.1671 30.6054 11.4523 31.4203 11.7771 32.2735C11.932 32.7159 12.1922 33.1606 12.5577 33.6076C12.9232 34.0546 13.3016 34.3141 13.6927 34.3863C13.943 34.4294 14.2323 34.4718 14.5605 34.5137C14.8807 34.5324 15.2043 34.5236 15.5314 34.4875C15.8504 34.4281 16.1414 34.3263 16.4045 34.1819C16.6675 34.0375 16.8672 33.8239 17.0034 33.5411C17.1395 33.2582 17.1098 32.8374 16.9143 32.2786C16.7187 31.7198 16.5074 31.1535 16.2804 30.5796C16.0766 29.9976 15.9363 29.4848 15.8595 29.0413C15.7978 28.5663 15.9613 28.287 16.3501 28.2031C17.1277 28.0355 17.7406 28.0692 18.1888 28.3043C18.637 28.5395 18.9059 28.7851 18.9955 29.0412C19.1667 29.5301 19.346 30.0423 19.5334 30.5778C19.7441 31.1051 19.9158 31.633 20.0486 32.1615C20.1813 32.69 20.2593 33.2115 20.2826 33.726C20.3292 34.2324 20.2856 34.705 20.1517 35.1439C19.9049 35.8575 19.5278 36.4599 19.0203 36.9512C18.5127 37.4424 17.922 37.8452 17.248 38.1596C16.5891 38.4425 15.8901 38.648 15.1509 38.776C14.435 38.896 13.7377 38.9571 13.059 38.9595C12.4584 38.9606 11.9339 38.8437 11.4858 38.6085C11.0294 38.3501 10.6307 38.0324 10.2896 37.6552C9.96365 37.2466 9.68367 36.7827 9.44967 36.2636C9.2308 35.7129 9.04685 35.1501 8.89783 34.5751C8.79072 34.1944 8.61084 33.6432 8.35821 32.9215C8.12071 32.1683 7.84304 31.3378 7.52521 30.4298C7.22251 29.4904 6.89595 28.5201 6.54552 27.519C6.21022 26.4865 5.87959 25.5046 5.55361 24.5733C5.22763 23.642 4.93017 22.7923 4.66124 22.024C4.41558 21.2475 4.23105 20.6457 4.10764 20.2185Z" fill="#6B605B"/>
<path d="M21.9865 22.2525C21.5673 20.6284 21.1394 19.0193 20.7025 17.4252C20.2656 15.8312 19.8646 14.2278 19.4994 12.6153C19.1959 11.2415 19.3107 10.2057 19.8438 9.50762C20.3708 8.7857 21.3397 8.34462 22.7504 8.18436C23.641 8.08189 24.5359 8.14391 25.435 8.37042C26.358 8.59077 27.2283 8.95211 28.0457 9.45445C28.8632 9.95678 29.5859 10.5855 30.2138 11.3405C30.8656 12.0894 31.3656 12.9411 31.7139 13.8957C32.6731 16.5269 33.5487 19.1795 34.3408 21.8538C35.1328 24.528 35.904 27.2204 36.6545 29.9309C36.7038 30.1219 36.7504 30.3519 36.7943 30.6208C36.832 30.8658 36.822 31.1232 36.7642 31.3928C36.7242 31.6324 36.6094 31.8786 36.4199 32.1313C36.248 32.354 35.9503 32.5327 35.5265 32.6675C35.1089 32.8263 34.7711 32.8498 34.513 32.738C34.2726 32.5963 34.0827 32.4033 33.9432 32.159C33.8277 31.9086 33.7479 31.649 33.704 31.3801C33.6539 31.0873 33.6162 30.8423 33.5907 30.6451C33.4698 29.6828 33.1392 29.093 32.5992 28.8757C32.0829 28.6523 31.4724 28.6061 30.7674 28.7371C30.3791 28.8118 30.012 28.9193 29.666 29.0595C29.3139 29.1758 29.0131 29.3426 28.7634 29.5599C28.5138 29.7772 28.3335 30.0657 28.2226 30.4255C28.1116 30.7853 28.1089 31.2191 28.2145 31.7268C28.2646 32.0196 28.3478 32.342 28.4641 32.6941C28.5805 33.0462 28.6398 33.3748 28.6421 33.6799C28.6683 33.9789 28.5955 34.2397 28.4237 34.4623C28.2757 34.6788 27.9418 34.816 27.4217 34.8738C27.2006 34.9053 26.9764 34.925 26.7491 34.9327C26.5218 34.9404 26.3034 34.9331 26.0938 34.9107C25.8781 34.8645 25.677 34.7763 25.4905 34.6461C25.328 34.5097 25.2008 34.3133 25.1092 34.0567C24.8218 33.2392 24.5336 32.3201 24.2447 31.2992C23.9797 30.2722 23.7115 29.2332 23.4403 28.1823C23.1691 27.1314 22.901 26.0925 22.636 25.0655C22.3948 24.0323 22.1664 23.0977 21.9507 22.2618L21.9865 22.2525ZM23.8344 11.4966C23.3806 11.6137 23.0867 11.9061 22.9526 12.3737C22.8424 12.8352 22.8259 13.4127 22.9029 14.1061C23.0039 14.7933 23.1772 15.5638 23.423 16.4175C23.6688 17.2711 23.9326 18.1456 24.2146 19.0409C24.5205 19.93 24.8114 20.8102 25.0872 21.6816C25.363 22.553 25.5814 23.35 25.7425 24.0727C25.828 24.3054 25.8989 24.5801 25.9551 24.8967C26.0291 25.1833 26.1627 25.4545 26.3561 25.7103C26.5672 25.9361 26.8558 26.1164 27.2217 26.2512C27.6054 26.356 28.1378 26.346 28.8189 26.2211C29.5 26.0963 29.9981 25.9041 30.3132 25.6444C30.6522 25.3786 30.8714 25.0928 30.9708 24.7869C31.0879 24.451 31.1214 24.1367 31.0713 23.8439C31.0151 23.5272 30.9592 23.2614 30.9038 23.0465C30.4307 21.4108 29.874 19.7967 29.2338 18.2041C28.6174 16.6054 27.9294 15.0252 27.1697 13.4635C27.0364 13.2432 26.87 12.9932 26.6705 12.7135C26.4709 12.4338 26.2298 12.1903 25.947 11.9831C25.682 11.7458 25.3726 11.5836 25.019 11.4966C24.6592 11.3856 24.2643 11.3856 23.8344 11.4966Z" fill="#6B605B"/>
<path d="M42.9648 6.78995C42.4748 6.85169 41.999 6.92342 41.5375 7.00515C41.076 7.08688 40.6639 7.23503 40.3011 7.44958C39.9339 7.63985 39.6491 7.94081 39.4464 8.35246C39.2637 8.73552 39.1962 9.27354 39.2438 9.96653C39.2785 10.5866 39.3188 11.1682 39.3649 11.7111C39.4309 12.2255 39.5734 12.6762 39.7922 13.0633C40.0111 13.4504 40.3428 13.7674 40.7873 14.0144C41.2319 14.2613 41.8721 14.4109 42.708 14.4633C43.8225 14.3912 44.6142 14.4764 45.083 14.7191C45.5719 14.9331 45.8643 15.3823 45.9605 16.0667C46.0207 16.4067 45.9752 16.7154 45.8239 16.9927C45.6683 17.2457 45.4455 17.473 45.1556 17.6747C44.8613 17.8521 44.5242 17.9994 44.1442 18.1168C43.7642 18.2342 43.3513 18.3074 42.9055 18.3362C42.4597 18.3651 42.1239 18.4496 41.8982 18.5898C41.6925 18.7013 41.5319 18.855 41.4163 19.0509C41.3249 19.2424 41.2743 19.4518 41.2645 19.679C41.2746 19.8776 41.2847 20.0762 41.2948 20.2748C41.3009 20.8749 41.3642 21.515 41.4846 22.1951C41.6294 22.8709 41.7741 23.5467 41.9188 24.2225C42.0636 24.8983 42.1961 25.5762 42.3166 26.2563C42.437 26.9364 42.5124 27.5743 42.5428 28.1702C42.5572 28.393 42.5967 28.6867 42.6612 29.051C42.7215 29.391 42.7331 29.7397 42.6962 30.0969C42.6792 30.4256 42.5587 30.735 42.3345 31.0252C42.1103 31.3154 41.7068 31.5121 41.1239 31.6154C40.5652 31.7143 40.1508 31.6374 39.8806 31.3847C39.6061 31.1076 39.408 30.767 39.2863 30.3626C39.1845 29.9298 39.1336 29.5004 39.1333 29.0746C39.1287 28.6245 39.1071 28.2901 39.0684 28.0715C38.4748 24.7197 37.9097 21.3878 37.3733 18.076C36.8326 14.7398 36.2897 11.3915 35.7446 8.03107C35.6012 7.07951 35.715 6.30784 36.0862 5.71604C36.453 5.09996 37.163 4.72373 38.216 4.58734C38.7303 4.52129 39.2911 4.4345 39.8983 4.32696C40.5056 4.21943 41.1006 4.11404 41.6836 4.0108C42.2665 3.90756 42.803 3.82507 43.2931 3.76333C43.8074 3.69729 44.2047 3.67704 44.4847 3.70259C44.7691 3.75243 45 3.92447 45.1774 4.21871C45.3747 4.48437 45.4406 4.78583 45.3751 5.12309C45.3096 5.46035 45.094 5.79913 44.7284 6.13943C44.3585 6.45545 43.7707 6.67228 42.9648 6.78995Z" fill="#6B605B"/>
<path d="M60.7108 1.77213C60.885 1.78004 61.0727 1.79903 61.2739 1.82911C61.4996 1.85681 61.7031 1.91143 61.8845 1.99299C62.0881 2.04762 62.2584 2.14265 62.3954 2.27807C62.557 2.41111 62.6496 2.60039 62.6734 2.8459C62.721 3.33694 62.565 3.77334 62.2055 4.15512C61.8681 4.50997 61.5434 4.73968 61.2314 4.84425C60.6319 5.05102 59.9983 5.16196 59.3306 5.17707C58.6606 5.16763 58.0076 5.2061 57.3716 5.29249C56.441 5.40741 55.7382 5.69854 55.263 6.16586C54.7878 6.63318 54.6505 7.38995 54.851 8.43616C54.9476 8.92244 54.9964 9.42575 54.9972 9.9461C55.0226 10.4641 55.048 10.982 55.0734 11.5C55.1519 12.3102 55.3551 12.8729 55.683 13.1881C56.0086 13.4787 56.6881 13.5864 57.7217 13.511C57.869 13.4968 58.1022 13.4742 58.4214 13.4432C58.7406 13.4123 59.0645 13.4305 59.3932 13.4978C59.7464 13.5627 60.0466 13.7195 60.2937 13.9682C60.563 14.1899 60.7104 14.5598 60.7358 15.0777C60.7366 15.5981 60.6261 15.9929 60.4044 16.2622C60.1827 16.5315 59.9293 16.7295 59.6441 16.8563C59.3567 16.9584 59.0902 17.0214 58.8446 17.0452C58.6213 17.0421 58.5096 17.0405 58.5096 17.0405C57.7929 17.0604 57.2155 17.2402 56.7776 17.58C56.3642 17.9174 56.0462 18.3448 55.8237 18.8619C55.6234 19.3522 55.5039 19.909 55.4651 20.5323C55.4264 21.1556 55.4355 21.7619 55.4926 22.3511C55.5473 22.9158 55.6353 23.4401 55.7565 23.924C55.8753 24.3834 55.97 24.7211 56.0405 24.9374C56.172 25.2716 56.353 25.4771 56.5835 25.5539C56.8116 25.6061 57.0595 25.6069 57.3272 25.5562C57.617 25.4785 57.8934 25.3898 58.1564 25.29C58.4415 25.1632 58.6822 25.0904 58.8787 25.0713C59.2913 24.9818 59.8512 24.878 60.5585 24.7599C61.2633 24.6173 61.9508 24.5507 62.6208 24.5601C63.313 24.5427 63.9165 24.6329 64.4313 24.8308C64.9707 25.0264 65.2677 25.4065 65.3224 25.9712C65.3771 26.5359 65.296 26.9775 65.079 27.2959C64.8597 27.5897 64.5841 27.8147 64.2522 27.9707C63.945 28.1244 63.6329 28.229 63.3161 28.2845C62.997 28.3154 62.7772 28.3491 62.6568 28.3855C62.0573 28.5923 61.4506 28.7254 60.8368 28.7848C60.223 28.8443 59.608 28.8915 58.9919 28.9264C58.3979 28.9344 57.794 28.9681 57.1802 29.0275C56.564 29.0624 55.9538 29.1587 55.3495 29.3164C54.7919 29.4447 54.3476 29.463 54.0166 29.3711C53.6855 29.2793 53.421 29.1067 53.2229 28.8533C53.0471 28.5729 52.9291 28.2498 52.8688 27.8839C52.8086 27.518 52.7595 27.1386 52.7214 26.7458C52.5588 24.5559 52.4097 22.3772 52.2741 20.2095C52.163 18.0394 52.0397 15.8705 51.904 13.7028C51.8437 12.5687 51.7601 11.4492 51.6531 10.3444C51.546 9.23956 51.4636 8.13235 51.4057 7.02277C51.3327 6.01377 51.3168 5.20989 51.3579 4.61113C51.4212 3.98545 51.5982 3.50984 51.8888 3.1843C52.2016 2.83183 52.6491 2.59023 53.2312 2.45949C53.8355 2.30183 54.6532 2.17305 55.6844 2.07317L57.0838 1.9376C57.0838 1.9376 57.2188 1.92452 57.4889 1.89836C57.759 1.8722 58.0793 1.85356 58.45 1.84244C58.8183 1.80676 59.2123 1.78099 59.6321 1.76511C60.0518 1.74923 60.4114 1.75157 60.7108 1.77213Z" fill="#6B605B"/>
<path d="M78.0859 1.12398C78.2589 1.14598 78.4445 1.18013 78.6425 1.22642C78.8653 1.27232 79.0637 1.34327 79.2379 1.43927C79.4363 1.51022 79.5984 1.61873 79.724 1.76482C79.8742 1.91052 79.9513 2.10669 79.9551 2.35333C79.9627 2.8466 79.7718 3.26892 79.3825 3.6203C79.0175 3.94663 78.6753 4.14926 78.3558 4.22819C77.7415 4.38568 77.101 4.44489 76.4343 4.40582C75.7672 4.34209 75.1132 4.3275 74.4724 4.36205C73.5355 4.40116 72.8114 4.63434 72.2999 5.06161C71.7884 5.48888 71.5902 6.23202 71.7052 7.29104C71.7621 7.78355 71.7699 8.28916 71.7286 8.80786C71.7119 9.32618 71.6952 9.8445 71.6785 10.3628C71.691 11.1767 71.848 11.754 72.1493 12.0948C72.4502 12.4108 73.1187 12.5732 74.155 12.5819C74.303 12.5796 74.5373 12.576 74.8579 12.5711C75.1785 12.5661 75.4999 12.6105 75.8221 12.7042C76.1689 12.7976 76.4554 12.9782 76.6815 13.2461C76.932 13.4889 77.0488 13.8695 77.0322 14.3878C76.9908 14.9065 76.8487 15.2911 76.6059 15.5415C76.3631 15.7919 76.0944 15.9688 75.8 16.072C75.5051 16.1505 75.2344 16.1917 74.9878 16.1955C74.7654 16.1743 74.6542 16.1636 74.6542 16.1636C73.9382 16.1253 73.3482 16.2578 72.8842 16.561C72.4448 16.8638 72.0932 17.2639 71.8295 17.7614C71.5901 18.2338 71.4258 18.779 71.3367 19.3972C71.2475 20.0153 71.2075 20.6203 71.2166 21.2122C71.2254 21.7795 71.2705 22.3092 71.3521 22.8013C71.4334 23.2688 71.5003 23.6131 71.5531 23.8343C71.6571 24.1781 71.8208 24.3976 72.0443 24.4929C72.2674 24.5634 72.5144 24.5843 72.7853 24.5554C73.0805 24.5016 73.3632 24.4355 73.6334 24.3574C73.9278 24.2541 74.1737 24.201 74.371 24.198C74.7895 24.1422 75.3561 24.0841 76.0705 24.0238C76.7846 23.9387 77.4752 23.9281 78.1423 23.9918C78.8336 24.0305 79.4278 24.1694 79.9249 24.4084C80.4467 24.6471 80.7119 25.05 80.7206 25.6173C80.7294 26.1846 80.6127 26.6181 80.3706 26.9178C80.1282 27.1929 79.8353 27.3948 79.4919 27.5235C79.1731 27.6517 78.8537 27.7306 78.5334 27.7602C78.2128 27.7652 77.991 27.7809 77.8681 27.8075C77.2537 27.965 76.6383 28.0485 76.0217 28.058C75.4051 28.0675 74.7883 28.0647 74.1713 28.0495C73.5787 28.0093 72.974 27.9939 72.3574 28.0034C71.7405 27.9883 71.1244 28.0348 70.5094 28.1429C69.9432 28.2257 69.4989 28.2079 69.1764 28.0895C68.8538 27.9711 68.6042 27.7776 68.4273 27.509C68.2748 27.2153 68.1833 26.8836 68.153 26.5141C68.1226 26.1445 68.1044 25.7624 68.0983 25.3678C68.1138 23.1719 68.1418 20.9882 68.1824 18.8167C68.2476 16.6448 68.3004 14.473 68.341 12.3015C68.3728 11.1662 68.3802 10.0436 68.3631 8.93374C68.346 7.82387 68.3535 6.71362 68.3858 5.60299C68.3948 4.5914 68.4442 3.78888 68.5337 3.19542C68.6475 2.57693 68.8624 2.11723 69.1785 1.81632C69.5189 1.49037 69.9844 1.28584 70.5752 1.20273C71.1903 1.09457 72.0158 1.03251 73.0516 1.01655L74.4575 0.994879C74.4575 0.994879 74.5931 0.992788 74.8644 0.988607C75.1357 0.984426 75.4566 0.991816 75.8269 1.01078C76.1968 1.00508 76.5917 1.01133 77.0113 1.02953C77.431 1.04773 77.7892 1.07922 78.0859 1.12398Z" fill="#6B605B"/>
<path d="M94.7482 26.1235C94.826 26.8696 94.6943 27.4052 94.3531 27.7303C94.0134 28.0307 93.5805 28.239 93.0544 28.355C92.5298 28.4464 91.9721 28.4739 91.3812 28.4377C90.8164 28.3783 90.3363 28.3489 89.9409 28.3493C89.4716 28.3453 88.9154 28.3482 88.2722 28.3582C87.6306 28.3436 87.002 28.3174 86.3865 28.2796C85.7956 28.2434 85.257 28.1609 84.7706 28.0322C84.2842 27.9035 83.9624 27.7108 83.8052 27.454C83.6927 27.2741 83.6306 26.8749 83.6192 26.2564C83.6323 25.6394 83.666 24.8877 83.7204 24.0014C83.7763 23.0904 83.8505 22.0817 83.9431 20.9753C84.0603 19.8704 84.1782 18.7532 84.2969 17.6237C84.4172 16.4695 84.5228 15.3516 84.6139 14.2698C84.7295 13.1895 84.8146 12.2062 84.8689 11.3199C84.9736 10.0165 85.0652 8.72469 85.1437 7.44443C85.2222 6.16417 85.3508 4.87462 85.5293 3.57578C85.5399 3.40344 85.5534 3.18185 85.5701 2.91103C85.5882 2.61558 85.6302 2.33396 85.696 2.06616C85.7865 1.79986 85.9239 1.57352 86.1084 1.38713C86.2928 1.20073 86.5697 1.11886 86.939 1.14152C87.6529 1.18531 88.1725 1.37781 88.4975 1.71902C88.8472 2.06174 88.9403 2.75941 88.7769 3.81205C88.696 4.32606 88.6203 4.75389 88.5499 5.09556C88.5041 5.43873 88.4606 5.74498 88.4194 6.01429C88.4043 6.2605 88.3777 6.49364 88.3394 6.71371C88.3012 6.93378 88.2723 7.20385 88.2527 7.52392C88.063 9.81059 87.8987 12.0865 87.7598 14.3515C87.6208 16.6166 87.4196 18.8902 87.156 21.1724C87.0313 22.4004 87.2008 23.2634 87.6645 23.7614C88.1297 24.2347 88.9439 24.4577 90.1071 24.4302C90.4779 24.4282 90.9364 24.4069 91.4826 24.3663C92.0288 24.3256 92.5466 24.345 93.036 24.4245C93.5254 24.5039 93.9356 24.665 94.2667 24.9077C94.5978 25.1504 94.7583 25.5557 94.7482 26.1235Z" fill="#6B605B"/>
<path d="M105.14 26.591C105.208 26.8241 105.438 26.9668 105.829 27.0191C106.223 27.047 106.628 27.0887 107.044 27.1442C107.46 27.1998 107.815 27.3344 108.11 27.548C108.408 27.7372 108.506 28.1235 108.403 28.707C108.276 29.2873 107.951 29.667 107.43 29.8461C106.932 30.0285 106.387 30.1049 105.794 30.0754C105.2 30.0459 104.663 29.974 104.18 29.8597C103.698 29.7455 103.42 29.6834 103.346 29.6736C103.13 29.6198 102.686 29.5854 102.016 29.5705C101.346 29.5556 100.671 29.4902 99.9895 29.3742C99.3359 29.2371 98.781 29.0136 98.3247 28.7038C97.8928 28.3972 97.7821 27.922 97.9926 27.2782C98.1802 26.8056 98.3743 26.4707 98.5748 26.2735C98.7998 26.0796 99.0134 25.9713 99.2155 25.9485C99.4421 25.929 99.6622 25.9584 99.8757 26.0367C100.089 26.1151 100.29 26.1917 100.48 26.2668C100.672 26.3174 100.843 26.3402 100.993 26.3354C101.146 26.3061 101.274 26.1863 101.377 25.9761C101.517 25.6713 101.604 25.3967 101.636 25.1522C101.694 24.911 101.721 24.7032 101.72 24.5288C101.746 24.3332 101.758 24.1482 101.757 23.9737C101.758 23.7749 101.786 23.5671 101.84 23.3503C102.279 20.9951 102.652 18.6683 102.96 16.3701C103.267 14.0719 103.579 11.737 103.896 9.36539C103.929 9.1209 103.977 8.85359 104.04 8.56347C104.107 8.2489 104.122 7.95224 104.085 7.6735C104.051 7.3703 103.912 7.10293 103.669 6.87139C103.426 6.63985 103.013 6.47264 102.43 6.36976C101.846 6.26688 101.388 5.96925 101.056 5.47687C100.727 4.96005 100.595 4.45715 100.66 3.96816C100.753 3.458 101.067 3.06445 101.602 2.78752C102.161 2.51386 103.041 2.5443 104.24 2.87884C104.918 3.01924 105.465 3.11722 105.881 3.17278C106.3 3.20389 106.656 3.23905 106.949 3.27826C107.27 3.2963 107.567 3.31106 107.839 3.32256C108.139 3.31288 108.511 3.32522 108.954 3.3596C109.076 3.37594 109.287 3.37927 109.587 3.36959C109.887 3.3599 110.182 3.38689 110.472 3.45056C110.763 3.51422 111.018 3.64797 111.24 3.85179C111.465 4.03117 111.563 4.31808 111.536 4.71254C111.504 5.13144 111.46 5.46151 111.403 5.70273C111.349 5.91951 111.252 6.09307 111.11 6.22343C110.971 6.32933 110.753 6.3749 110.457 6.36014C110.185 6.34864 109.816 6.31184 109.352 6.24975C108.863 6.18439 108.506 6.24866 108.281 6.44256C108.056 6.63646 107.885 6.88743 107.769 7.19547C107.678 7.50677 107.62 7.84742 107.596 8.21743C107.574 8.56299 107.535 8.85638 107.478 9.0976C107.009 11.2996 106.611 13.5359 106.283 15.8064C105.979 18.0802 105.678 20.3295 105.381 22.5544C105.338 22.8722 105.28 23.2129 105.207 23.5763C105.158 23.9431 105.109 24.3098 105.06 24.6765C105.035 25.0465 105.024 25.406 105.027 25.7548C105.034 26.0792 105.071 26.3579 105.14 26.591Z" fill="#6B605B"/>
<path d="M129.405 15.9189C129.022 17.8297 128.622 19.7621 128.204 21.716C127.792 23.6458 127.372 25.4352 126.944 27.0842C126.521 28.709 126.087 30.0919 125.642 31.2327C125.202 32.3493 124.762 33.0499 124.323 33.3345C124.147 33.4483 123.933 33.5035 123.682 33.5003C123.615 33.4607 123.542 33.4452 123.465 33.4539C123.392 33.4384 123.32 33.423 123.248 33.4075C123.006 33.356 122.758 33.2778 122.503 33.1728C122.253 33.0438 122.034 32.77 121.846 32.3515C121.539 31.0751 121.295 29.5601 121.115 27.8064C120.934 26.0527 120.776 24.2533 120.641 22.4083C120.568 21.3333 120.478 20.2799 120.37 19.248C120.268 18.192 120.157 17.2351 120.037 16.3772C119.918 15.5193 119.782 14.7967 119.63 14.2093C119.483 13.5978 119.302 13.206 119.087 13.0339C119.049 12.9753 119.015 12.9555 118.986 12.9745C118.962 12.9693 118.926 12.9616 118.877 12.9513C118.755 13.0513 118.611 13.3736 118.444 13.9181C118.306 14.4436 118.155 15.0923 117.99 15.8643C117.855 16.6172 117.704 17.4425 117.537 18.3402C117.395 19.2431 117.26 20.1097 117.133 20.9402C116.679 23.8951 116.253 26.3012 115.856 28.1587C115.464 29.992 115.032 31.0724 114.558 31.4001C114.412 31.4949 114.266 31.5269 114.122 31.496C113.856 31.4393 113.599 31.3464 113.349 31.2174C113.099 31.0883 112.877 30.8895 112.682 30.6209C112.511 30.3574 112.392 30.0293 112.324 29.6365C112.262 29.2196 112.293 28.7217 112.417 28.1428C112.885 25.5945 113.373 23.0754 113.879 20.5857C114.391 18.0718 114.9 15.5699 115.407 13.0802C115.543 12.3272 115.688 11.5889 115.842 10.8652C116.002 10.1174 116.159 9.38171 116.314 8.65804C116.425 8.25311 116.5 7.90333 116.538 7.60871C116.581 7.28996 116.606 6.99277 116.615 6.71711C116.634 6.39322 116.659 6.09602 116.692 5.82552C116.748 5.56017 116.87 5.34646 117.056 5.1844C117.266 5.02749 117.541 4.92222 117.88 4.86859C118.219 4.81497 118.686 4.8138 119.281 4.8651C119.996 4.94216 120.582 5.38281 121.041 6.18706C121.524 6.99646 121.915 8.0006 122.214 9.19947C122.542 10.3794 122.796 11.6696 122.976 13.0701C123.156 14.4706 123.313 15.8031 123.446 17.0675C123.521 17.6636 123.579 18.2183 123.621 18.7316C123.686 19.2502 123.75 19.7179 123.813 20.1347C123.83 20.2898 123.844 20.5198 123.855 20.8247C123.87 21.1055 123.902 21.4276 123.951 21.7911C123.953 22.0185 123.954 22.3088 123.954 22.662C123.954 23.0152 123.969 23.3588 123.999 23.693C124.033 24.0031 124.088 24.2796 124.162 24.5225C124.265 24.7464 124.395 24.8496 124.55 24.8323C124.705 24.815 124.837 24.4902 124.947 23.8578C125.062 23.2014 125.167 22.4166 125.261 21.5034C125.36 20.5662 125.458 19.5781 125.553 18.5392C125.654 17.4761 125.766 16.5414 125.888 15.7351C126.049 14.5084 126.201 13.3807 126.345 12.3521C126.519 11.3045 126.682 10.4818 126.835 9.88386C126.845 9.83562 126.846 9.77273 126.837 9.69522C126.858 9.59873 126.876 9.5143 126.891 9.44193C126.939 9.09906 127.012 8.69846 127.11 8.24014C127.232 7.78696 127.471 7.4345 127.828 7.18274C128.209 6.93613 128.64 6.86435 129.122 6.96741C130.015 7.15806 130.585 7.44367 130.831 7.82425C130.94 8.02402 130.988 8.21091 130.976 8.38492C130.964 8.55893 130.943 8.71831 130.912 8.86304C130.663 9.79351 130.407 10.8739 130.144 12.1041C129.91 13.3154 129.664 14.587 129.405 15.9189Z" fill="#6B605B"/>
<path d="M140.259 32.352C140.569 31.6729 140.688 31.1548 140.616 30.7978C140.552 30.4171 140.381 30.1328 140.103 29.9449C139.825 29.757 139.49 29.6291 139.098 29.5612C138.706 29.4933 138.345 29.409 138.015 29.3083C137.692 29.184 137.445 29.0187 137.276 28.8124C137.114 28.5825 137.117 28.2352 137.284 27.7705C137.524 27.0698 137.84 26.6247 138.233 26.4351C138.626 26.2455 139.03 26.1882 139.446 26.2633C139.892 26.322 140.385 26.5238 140.925 26.8688C141.469 27.1123 141.948 27.3613 142.36 27.6159C142.725 27.8562 143.056 28.1247 143.352 28.4213C143.672 28.7252 143.865 29.0674 143.929 29.4481C143.968 29.7436 143.89 30.2099 143.696 30.8469C143.525 31.4912 143.297 32.1564 143.01 32.8427C142.724 33.5289 142.412 34.169 142.077 34.7629C141.748 35.3332 141.465 35.7112 141.228 35.8967C140.508 36.3991 139.783 36.7456 139.055 36.9361C138.333 37.103 137.597 37.1493 136.846 37.0751C136.119 37.008 135.385 36.8358 134.644 36.5584C133.927 36.2882 133.196 35.9365 132.451 35.5032C130.693 34.503 129.994 32.82 130.355 30.4542C130.849 27.2267 131.655 24.1588 132.774 21.2507C133.923 18.3261 135.312 15.4617 136.941 12.6574C137.591 11.5404 138.345 10.842 139.204 10.5623C140.087 10.2898 141.046 10.2729 142.082 10.5114C143.243 10.7623 144.231 11.244 145.046 11.9564C145.891 12.6524 146.381 13.6658 146.517 14.9966C146.523 15.2305 146.55 15.5225 146.598 15.8723C146.677 16.2058 146.678 16.5413 146.601 16.8789C146.554 17.2 146.405 17.4769 146.154 17.7097C145.902 17.9425 145.477 18.0705 144.876 18.0938C144.276 18.1171 143.842 18.062 143.573 17.9285C143.328 17.8022 143.168 17.6503 143.093 17.4728C143.018 17.2952 142.986 17.1049 142.996 16.9017C143.014 16.675 142.989 16.4611 142.921 16.2599C142.51 15.1548 141.936 14.5025 141.197 14.3031C140.458 14.1037 139.715 14.4701 138.966 15.4024C138.793 15.6331 138.579 15.9547 138.324 16.367C138.077 16.7557 137.818 17.1799 137.549 17.6394C137.311 18.0825 137.077 18.5138 136.845 18.9333C136.638 19.3601 136.491 19.715 136.405 19.9981C136.122 20.8403 135.872 21.5764 135.654 22.2062C135.467 22.8197 135.28 23.4331 135.093 24.0466C134.93 24.6672 134.764 25.3387 134.595 26.0609C134.457 26.7667 134.315 27.6131 134.169 28.6C134.04 29.0247 133.918 29.4648 133.805 29.9203C133.699 30.3522 133.663 30.7667 133.697 31.1638C133.731 31.5609 133.849 31.9323 134.053 32.2782C134.265 32.6005 134.619 32.8761 135.117 33.1051C135.567 33.3198 136.047 33.4791 136.557 33.5829C137.067 33.6868 137.556 33.7327 138.023 33.7206C138.498 33.6849 138.936 33.5605 139.336 33.3473C139.737 33.134 140.044 32.8023 140.259 32.352Z" fill="#6B605B"/>
<path d="M150.492 31.8534C150.885 32.3884 151.105 32.8256 151.153 33.1651C151.2 33.5045 151.149 33.7903 151 34.0225C150.884 34.2413 150.699 34.4319 150.445 34.5945C150.224 34.7436 150.012 34.8698 149.81 34.9733C149.598 35.0996 149.429 35.2835 149.303 35.5251C149.186 35.7439 149.127 35.9861 149.124 36.2518C149.122 36.5174 149.19 36.7723 149.33 37.0164C149.493 37.2698 149.752 37.483 150.107 37.6558C150.819 38.0014 151.483 38.2344 152.1 38.3547C152.75 38.4615 153.262 38.3518 153.636 38.0255C154.403 37.3273 154.921 36.5534 155.19 35.7039C155.482 34.8638 155.556 34.001 155.413 33.1156C155.27 32.2302 154.951 31.3523 154.455 30.4819C153.96 29.6115 153.326 28.8177 152.554 28.1005C151.782 27.3832 151.3 26.4786 151.109 25.3866C150.927 24.2718 150.96 23.1522 151.209 22.0276C151.49 20.8897 151.96 19.8428 152.619 18.887C153.302 17.9407 154.135 17.243 155.119 16.7942C156.104 16.3453 157.091 16.1507 158.079 16.2104C159.068 16.27 160.006 16.6819 160.892 17.446C161.732 18.1914 162.336 19.0261 162.703 19.9503C163.079 20.8516 163.081 21.8525 162.709 22.953C162.666 23.1221 162.63 23.3072 162.601 23.5085C162.572 23.7098 162.508 23.897 162.41 24.0702C162.312 24.2433 162.146 24.3883 161.911 24.5052C161.686 24.5993 161.363 24.6398 160.941 24.6267C160.552 24.6002 160.292 24.5198 160.16 24.3858C160.038 24.2289 159.976 24.0565 159.973 23.8687C159.979 23.658 160.002 23.4407 160.041 23.2166C160.102 23.0019 160.127 22.812 160.115 22.647C160.05 21.7669 159.835 21.0251 159.469 20.4216C159.113 19.7953 158.441 19.4523 157.452 19.3927C156.499 19.3746 155.828 19.6454 155.438 20.2052C155.048 20.765 154.783 21.4427 154.642 22.2384C154.426 23.3495 154.455 24.3484 154.731 25.235C155.03 26.1311 155.67 26.941 156.653 27.6648C158.022 28.6808 158.826 29.9045 159.065 31.3359C159.326 32.7766 159.078 34.515 158.322 36.5509C157.664 38.2808 156.724 39.6279 155.501 40.5921C154.288 41.5336 152.923 41.9995 151.407 41.9898C150.688 41.9877 149.972 41.8802 149.259 41.6674C148.556 41.4318 147.918 41.1029 147.344 40.6807C146.771 40.2584 146.302 39.7456 145.937 39.1421C145.594 38.548 145.401 37.882 145.357 37.1441C145.334 36.6812 145.408 36.178 145.578 35.6345C145.771 35.1004 146.009 34.585 146.293 34.0884C146.587 33.5689 146.916 33.091 147.282 32.6547C147.671 32.2278 148.045 31.9015 148.404 31.6758C148.796 31.4367 149.164 31.321 149.507 31.3288C149.883 31.3232 150.211 31.498 150.492 31.8534Z" fill="#6B605B"/>
</svg>
