<svg width="63" height="49" viewBox="0 0 63 49" fill="none" xmlns="http://www.w3.org/2000/svg">
<path d="M56.9105 35.4435C56.9105 41.1183 48.258 48.8571 29.3791 48.8571C10.5002 48.8571 0 42.3128 0 36.638C0 30.9632 10.5002 25.252 29.3791 25.252C48.258 25.252 56.9105 29.7686 56.9105 35.4435Z" fill="#E8E8E8"/>
<path d="M45.3783 35.6624C45.3783 36.2015 44.9879 36.8611 44.1884 37.559C43.3957 38.2511 42.2275 38.9569 40.7369 39.5904C37.7569 40.8568 33.5088 41.8254 28.4552 41.8254C23.4016 41.8254 19.2187 40.8568 16.3039 39.5909C14.8459 38.9576 13.7103 38.2521 12.9419 37.5605C12.1676 36.8636 11.7907 36.2036 11.7907 35.6624C11.7907 35.1311 12.1564 34.5928 12.9251 34.0776C13.6897 33.565 14.823 33.0972 16.2833 32.7018C19.2019 31.9117 23.3913 31.4207 28.4552 31.4207C33.519 31.4207 37.7735 31.9117 40.7572 32.702C42.2502 33.0975 43.4161 33.5656 44.2053 34.0787C44.9997 34.5952 45.3783 35.1336 45.3783 35.6624Z" stroke="#453A36" stroke-opacity="0.5" stroke-width="0.3"/>
<path fill-rule="evenodd" clip-rule="evenodd" d="M52.3096 8.51974C52.3048 24.5845 41.7914 40.3483 28.3654 40.3483C14.9363 40.3483 4.23553 24.5774 4.23553 8.50883C4.23554 8.50882 4.23555 8.50882 4.23557 8.50882C4.23558 4.87066 14.7507 0 28.1798 0C41.6088 0 52.3096 4.87066 52.3096 8.50883C52.3096 8.51247 52.3096 8.51611 52.3096 8.51974Z" fill="#F1F1F1"/>
<ellipse cx="28.4552" cy="9.05779" rx="18.6252" ry="5.21509" fill="#A79E68"/>
<path d="M51.9955 9.88122C63.6363 8.50887 58.2039 20.5859 45.7871 24.9775" stroke="#F1F1F1" stroke-width="9" stroke-linecap="round"/>
<path d="M21.1686 25.1197C22.1478 26.0641 24.0495 26.2741 25.7163 25.6995" stroke="black" stroke-linecap="round"/>
<path d="M31.9814 25.5134C33.0698 26.2391 34.8893 26.0554 36.3468 25.1503" stroke="black" stroke-linecap="round"/>
<path d="M26.8652 30.0228C27.5048 31.0407 29.1036 31.38 30.15 30.066" stroke="black" stroke-linecap="round"/>
</svg>
