<svg width="350" height="640" viewBox="0 0 350 640" fill="none" xmlns="http://www.w3.org/2000/svg">
<path fill-rule="evenodd" clip-rule="evenodd" d="M89.8709 51C95.8323 22.1655 131.675 0 175 0C218.325 0 254.168 22.1655 260.129 51H350V640H0V51H89.8709Z" fill="#B79C88"/>
<rect x="22" y="78" width="300" height="536" rx="10" fill="white"/>
<path d="M59 110.5L54 108.113V113.887L59 111.5V110.5ZM289.5 111.5L294.5 113.887V108.113L289.5 110.5V111.5ZM58.5 111.5H290V110.5H58.5V111.5Z" fill="#6B605B"/>
<path d="M59 170.5L54 168.113V173.887L59 171.5V170.5ZM289.5 171.5L294.5 173.887V168.113L289.5 170.5V171.5ZM58.5 171.5H290V170.5H58.5V171.5Z" fill="#6B605B"/>
<path d="M60 575.5L55 573.113V578.887L60 576.5V575.5ZM290 576.5L295 578.887V573.113L290 575.5V576.5ZM59.5 576.5H290.5V575.5H59.5V576.5Z" fill="#6B605B"/>
</svg>
