<svg width="63" height="49" viewBox="0 0 63 49" fill="none" xmlns="http://www.w3.org/2000/svg">
<path d="M56.9105 35.4435C56.9105 41.1183 48.258 48.8572 29.3791 48.8572C10.5002 48.8572 0 42.3128 0 36.638C0 30.9632 10.5002 25.252 29.3791 25.252C48.258 25.252 56.9105 29.7686 56.9105 35.4435Z" fill="#E8E8E8"/>
<path d="M45.3783 35.6624C45.3783 36.2015 44.9879 36.8611 44.1884 37.559C43.3957 38.2511 42.2275 38.9569 40.7369 39.5904C37.7569 40.8568 33.5088 41.8254 28.4552 41.8254C23.4016 41.8254 19.2187 40.8568 16.3039 39.5909C14.8459 38.9576 13.7103 38.2521 12.9419 37.5605C12.1676 36.8636 11.7907 36.2036 11.7907 35.6624C11.7907 35.1311 12.1564 34.5928 12.9251 34.0776C13.6897 33.565 14.823 33.0971 16.2833 32.7018C19.2019 31.9117 23.3913 31.4207 28.4552 31.4207C33.519 31.4207 37.7735 31.9117 40.7572 32.702C42.2502 33.0975 43.4161 33.5656 44.2053 34.0787C44.9997 34.5952 45.3783 35.1336 45.3783 35.6624Z" stroke="#453A36" stroke-opacity="0.5" stroke-width="0.3"/>
<path fill-rule="evenodd" clip-rule="evenodd" d="M4.23553 8.50883C4.23553 4.87066 14.7507 0 28.1798 0C41.6088 0 52.3096 4.87066 52.3096 8.50883C52.3096 24.5774 41.7944 40.3483 28.3654 40.3483C14.9363 40.3483 4.23554 24.5774 4.23553 8.50883Z" fill="#F1F1F1"/>
<ellipse cx="28.4552" cy="9.05779" rx="18.6252" ry="5.21509" fill="#BD6156"/>
<path d="M51.9955 9.88122C63.6363 8.50887 58.2039 20.5859 45.7871 24.9775" stroke="#F1F1F1" stroke-width="9" stroke-linecap="round"/>
<path d="M26.8652 30.774C27.5048 29.7562 29.1036 29.4169 30.15 30.7308" stroke="black" stroke-linecap="round"/>
<path fill-rule="evenodd" clip-rule="evenodd" d="M25.7395 25.7219C25.7862 25.7591 25.8253 25.8036 25.8561 25.8528C25.8966 25.9173 25.9222 25.9888 25.9326 26.062C25.9432 26.1351 25.9388 26.2105 25.918 26.283C25.9022 26.3383 25.8771 26.3912 25.8426 26.439C25.8276 26.4598 25.8113 26.4792 25.7937 26.4969C24.4386 27.9298 22.8485 28.3415 21.6568 27.6268C20.4591 26.9085 19.993 25.2527 20.4972 23.2779C20.5028 23.2541 20.51 23.2305 20.5191 23.2074C20.5405 23.1524 20.5706 23.1032 20.6073 23.0613C20.6561 23.0052 20.7158 22.9628 20.7813 22.9356C20.8466 22.9083 20.9184 22.8958 20.9918 22.9009C21.0469 22.9046 21.1022 22.9181 21.1554 22.9421C21.1777 22.952 21.199 22.9635 21.2192 22.9764L25.6765 25.679C25.6983 25.6915 25.7193 25.7058 25.7395 25.7219ZM21.3154 24.2027L24.6235 26.2084C23.6056 27.0528 22.6859 27.0792 22.1268 26.7439C21.5712 26.4106 21.1252 25.5697 21.3154 24.2027Z" fill="black"/>
<path fill-rule="evenodd" clip-rule="evenodd" d="M31.8738 26.0613C31.8271 26.0985 31.788 26.1429 31.7572 26.1922C31.7167 26.2567 31.6911 26.3282 31.6807 26.4013C31.6701 26.4744 31.6745 26.5499 31.6953 26.6224C31.7111 26.6777 31.7362 26.7306 31.7707 26.7783C31.7856 26.7992 31.802 26.8185 31.8195 26.8363C33.1747 28.2691 34.7648 28.6809 35.9565 27.9662C37.1541 27.2479 37.6203 25.5921 37.1161 23.6172C37.1105 23.5934 37.1032 23.5699 37.0942 23.5468C37.0728 23.4917 37.0427 23.4426 37.006 23.4006C36.9572 23.3445 36.8974 23.3022 36.832 23.275C36.7666 23.2476 36.6949 23.2352 36.6214 23.2403C36.5664 23.244 36.5111 23.2575 36.4578 23.2814C36.4356 23.2914 36.4143 23.3029 36.3941 23.3158L31.9367 26.0183C31.915 26.0308 31.894 26.0452 31.8738 26.0613ZM36.2979 24.542L32.9898 26.5478C34.0077 27.3922 34.9274 27.4185 35.4864 27.0832C36.0421 26.75 36.4881 25.9091 36.2979 24.542Z" fill="black"/>
</svg>
